<mxfile host="www.draw.io" modified="2019-12-15T18:40:21.233Z" agent="Mozilla/5.0 (Windows NT 10.0; Win64; x64) AppleWebKit/537.36 (KHTML, like Gecko) Chrome/79.0.3945.79 Safari/537.36" etag="iKs5ECDoZImkAdAeEHeh" version="12.4.2" type="github" pages="1">
  <diagram id="r5lXCgjiAQXWa1Y_-uwi" name="Page-1">
    <mxGraphModel dx="526" dy="232" grid="1" gridSize="10" guides="1" tooltips="1" connect="1" arrows="1" fold="1" page="1" pageScale="1" pageWidth="850" pageHeight="1100" math="0" shadow="0">
      <root>
        <mxCell id="0"/>
        <mxCell id="1" parent="0"/>
        <mxCell id="Wlwk9PpbbpE__Li-QI0U-2" value="" style="endArrow=none;dashed=1;html=1;dashPattern=1 4;opacity=40;" parent="1" edge="1">
          <mxGeometry width="50" height="50" relative="1" as="geometry">
            <mxPoint x="20" y="230" as="sourcePoint"/>
            <mxPoint x="542.507470703125" y="230" as="targetPoint"/>
          </mxGeometry>
        </mxCell>
        <mxCell id="Wlwk9PpbbpE__Li-QI0U-3" value="Tier 1" style="text;html=1;strokeColor=none;fillColor=none;align=center;verticalAlign=middle;whiteSpace=wrap;rounded=0;fontSize=6;" parent="1" vertex="1">
          <mxGeometry x="60" y="230" width="40" height="10" as="geometry"/>
        </mxCell>
        <mxCell id="Wlwk9PpbbpE__Li-QI0U-4" value="Tier 4" style="text;html=1;strokeColor=none;fillColor=none;align=center;verticalAlign=middle;whiteSpace=wrap;rounded=0;fontSize=6;" parent="1" vertex="1">
          <mxGeometry x="470" y="230" width="40" height="10" as="geometry"/>
        </mxCell>
        <mxCell id="Wlwk9PpbbpE__Li-QI0U-5" value="Tier 3" style="text;html=1;strokeColor=none;fillColor=none;align=center;verticalAlign=middle;whiteSpace=wrap;rounded=0;fontSize=6;" parent="1" vertex="1">
          <mxGeometry x="340" y="230" width="40" height="10" as="geometry"/>
        </mxCell>
        <mxCell id="Wlwk9PpbbpE__Li-QI0U-6" value="Tier 2" style="text;html=1;strokeColor=none;fillColor=none;align=center;verticalAlign=middle;whiteSpace=wrap;rounded=0;fontSize=6;" parent="1" vertex="1">
          <mxGeometry x="200" y="230" width="40" height="10" as="geometry"/>
        </mxCell>
        <mxCell id="Wlwk9PpbbpE__Li-QI0U-8" value="" style="endArrow=none;dashed=1;html=1;dashPattern=1 4;opacity=40;" parent="1" edge="1">
          <mxGeometry width="50" height="50" relative="1" as="geometry">
            <mxPoint x="150" y="20" as="sourcePoint"/>
            <mxPoint x="150" y="230" as="targetPoint"/>
          </mxGeometry>
        </mxCell>
        <mxCell id="Wlwk9PpbbpE__Li-QI0U-9" value="" style="endArrow=none;dashed=1;html=1;dashPattern=1 4;opacity=40;" parent="1" edge="1">
          <mxGeometry width="50" height="50" relative="1" as="geometry">
            <mxPoint x="290" y="20" as="sourcePoint"/>
            <mxPoint x="290" y="230" as="targetPoint"/>
          </mxGeometry>
        </mxCell>
        <mxCell id="Wlwk9PpbbpE__Li-QI0U-10" value="" style="endArrow=none;dashed=1;html=1;dashPattern=1 4;opacity=40;" parent="1" edge="1">
          <mxGeometry width="50" height="50" relative="1" as="geometry">
            <mxPoint x="432" y="20" as="sourcePoint"/>
            <mxPoint x="432" y="230" as="targetPoint"/>
          </mxGeometry>
        </mxCell>
        <mxCell id="_9sSUe1uHwKyqzF6hULF-1" value="" style="shape=image;imageAspect=0;aspect=fixed;verticalLabelPosition=bottom;verticalAlign=top;image=data:image/svg+xml,PHN2ZyB4bWxuczp2PSJodHRwOi8vc2NoZW1hcy5taWNyb3NvZnQuY29tL3Zpc2lvLzIwMDMvU1ZHRXh0ZW5zaW9ucy8iIHhtbG5zOm9yeXg9Imh0dHA6Ly9vcnl4LWVkaXRvci5vcmciIHhtbG5zOnhsaW5rPSJodHRwOi8vd3d3LnczLm9yZy8xOTk5L3hsaW5rIiB4bWxucz0iaHR0cDovL3d3dy53My5vcmcvMjAwMC9zdmciIGJhc2VQcm9maWxlPSJmdWxsIiBnZW5lcmF0ZWQ9ImphdmEiIGhlaWdodD0iNTkxLjM2OSIgaWQ9InN2Zy1jYW52YXMiIG9yeXg6c2lnbmF2aW92ZXJzaW9uPSIxMy45LjAiIHZlcnNpb249IjEuMSIgd2lkdGg9IjE2ODcuOTg2IiB2aWV3Qm94PSIwIDAgMTY4Ny45ODYgNTkxLjM2OSI+PGRlZnMvPjxnIGZvbnQtZmFtaWx5PSInT3BlbiBTYW5zJywgJ0thbml0JywgJ0V6cmEgU0lMJywgJ0RlamFWdSBTYW5zJywgSGFuYU1pbkEsIEhhbmFNaW5CLCBzYW5zLXNlcmlmIiBmb250LXNpemU9IjEyIiBmb250LXNpemUtYWRqdXN0PSJub25lIiBmb250LXN0eWxlPSJub3JtYWwiIGZvbnQtdmFyaWFudD0ibm9ybWFsIiBmb250LXdlaWdodD0ibm9ybWFsIiBzdHJva2U9ImJsYWNrIj48ZyBjbGFzcz0ic3RlbmNpbHMiIHRyYW5zZm9ybT0idHJhbnNsYXRlKC00Ny40NzMsIC0xMzYuOTc1KSI+PGcgY2xhc3M9Im1lIi8+PGcgY2xhc3M9ImNoaWxkcmVuIj48ZyBpZD0ic3ZnLXNpZC1DRDJBRkMzMy0xREI1LTQ2ODAtOTQyRi04OUU3RUNBMDBCODYiPjxnIGNsYXNzPSJzdGVuY2lscyIgdHJhbnNmb3JtPSJ0cmFuc2xhdGUoNzIuNDczLCAxNjEuOTc1KSI+PGcgY2xhc3M9Im1lIj48ZyB4bWxuczpuczA9Imh0dHA6Ly9vcnl4LWVkaXRvci5vcmciIG5zMDptaW5pbXVtU2l6ZT0iODAgNTAiIHBvaW50ZXItZXZlbnRzPSJmaWxsIiB0aXRsZT0iTm9kZSI+PGRlZnM+PHJhZGlhbEdyYWRpZW50IGN4PSIxMCUiIGN5PSIxMCUiIGZ4PSIxMCUiIGZ5PSIxMCUiIGlkPSJzaWQtNzBmNjlmODItMTQxZi00YWI3LWFmZGYtYzljYmE3OTgxZjA1YmFja2dyb3VuZCIgcj0iMTAwJSI+PHN0b3Agb2Zmc2V0PSIwIiBzdG9wLWNvbG9yPSIjZmZmZmZmIiBzdG9wLW9wYWNpdHk9IjEiLz48c3RvcCBpZD0ic2lkLTcwZjY5ZjgyLTE0MWYtNGFiNy1hZmRmLWM5Y2JhNzk4MWYwNWZpbGxfZWwiIG9mZnNldD0iMTAwJSIgc3RvcC1jb2xvcj0iIzhmYzFhOSIgc3RvcC1vcGFjaXR5PSIxIi8+PC9yYWRpYWxHcmFkaWVudD48L2RlZnM+PHJlY3QgZmlsbD0idXJsKCNzaWQtNzBmNjlmODItMTQxZi00YWI3LWFmZGYtYzljYmE3OTgxZjA1YmFja2dyb3VuZCkgI2M5ZTdiNyIgaGVpZ2h0PSIyNDguMTg0IiBpZD0ic2lkLTcwZjY5ZjgyLTE0MWYtNGFiNy1hZmRmLWM5Y2JhNzk4MWYwNWJnX2ZyYW1lIiBuczA6cmVzaXplPSJ2ZXJ0aWNhbCBob3Jpem9udGFsIiBzdHJva2U9IiMwMDAwMDAiIHN0cm9rZS13aWR0aD0iMSIgd2lkdGg9IjMzNCIgeD0iMCIgeT0iMCIvPjx0ZXh0IHhtbG5zOm5zMT0iaHR0cDovL29yeXgtZWRpdG9yLm9yZyIgeG1sbnM6bnMyPSJodHRwOi8vb3J5eC1lZGl0b3Iub3JnIiB4bWxuczpuczM9Imh0dHA6Ly9vcnl4LWVkaXRvci5vcmciIHhtbG5zOm5zND0iaHR0cDovL29yeXgtZWRpdG9yLm9yZyIgbnMwOmFsaWduPSJjZW50ZXIgdG9wIiBuczE6YW5jaG9ycz0idG9wIGxlZnQiIGRpc3BsYXk9ImluaGVyaXQiIG5zMjpmaXR0b2VsZW09InNpZC03MGY2OWY4Mi0xNDFmLTRhYjctYWZkZi1jOWNiYTc5ODFmMDV0ZXh0X2ZyYW1lIiBmb250LXNpemU9IjEyIiBuczM6Zm9udFNpemU9IjEyIiBpZD0ic2lkLTcwZjY5ZjgyLTE0MWYtNGFiNy1hZmRmLWM5Y2JhNzk4MWYwNXRleHRfbmFtZV9mbHkiIGxldHRlci1zcGFjaW5nPSItMC4wMXB4IiBzdHJva2U9ImJsYWNrIiBzdHJva2Utd2lkdGg9IjBwdCIgdGV4dC1hbmNob3I9Im1pZGRsZSIgbnM0OnRleHRXaWR0aD0iMzI4IiB0cmFuc2Zvcm09InJvdGF0ZSgwKSIgeD0iMTY3IiB5PSI1Ij48dHNwYW4gZHk9IjEyIiB4PSIxNjciIHk9IjUiPiZsdDsmbHQ7ZGV2aWNlJmd0OyZndDs8djpuZXdsaW5lQ2hhci8+PC90c3Bhbj48dHNwYW4gZHk9IjI0IiB4PSIxNjciIHk9IjUiPk1vYmlsZTwvdHNwYW4+PC90ZXh0PjxnIGlkPSJzaWQtNzBmNjlmODItMTQxZi00YWI3LWFmZGYtYzljYmE3OTgxZjA1cm9sZSIgc3Ryb2tlLWxpbmVqb2luPSJyb3VuZCIgc3R5bGU9ImZpbGw6bm9uZTtzdHJva2U6IzAwMDAwMDtzdHJva2Utd2lkdGg6MS4yO3N0cm9rZS1vcGFjaXR5OjEiPjxwYXRoIG5zMDphbmNob3JzPSJ0b3AgcmlnaHQiIGQ9Im0zMTEuMDU5IDExLjI3MiBsOS43ODcgMCBsMy41OTEgLTMuNTkxIGwtOS43ODcgMCB6IiBpZD0ic2lkLTcwZjY5ZjgyLTE0MWYtNGFiNy1hZmRmLWM5Y2JhNzk4MWYwNXBhdGhfdG9wIiBzdHJva2U9IiMwMDAwMDAiLz48cGF0aCBuczA6YW5jaG9ycz0idG9wIHJpZ2h0IiBkPSJtMzIwLjg0NiAxMS4yNzIgbDAgOS45MDIgbDMuNTkxIC0zLjU5MSBsMCAtOS45MDIgeiIgaWQ9InNpZC03MGY2OWY4Mi0xNDFmLTRhYjctYWZkZi1jOWNiYTc5ODFmMDVwYXRoX3JpZ2h0IiBzdHJva2U9IiMwMDAwMDAiLz48cGF0aCBuczA6YW5jaG9ycz0idG9wIHJpZ2h0IiBkPSJtMzExLjA1OSAxMS4yNzIgbDkuNzg3IDAgbDAgOS45MDIgbC05Ljc4NyAwIHoiIGlkPSJzaWQtNzBmNjlmODItMTQxZi00YWI3LWFmZGYtYzljYmE3OTgxZjA1cGF0aF9mcm9udCIgc3Ryb2tlPSIjMDAwMDAwIi8+PC9nPjx0aXRsZT5Ob2RlPC90aXRsZT48L2c+PC9nPjxnIGNsYXNzPSJjaGlsZHJlbiI+PGcgaWQ9InN2Zy1zaWQtNDAzQkFBM0EtNzlBNC00NjkzLUFCNkItQTdBM0U2MDUxNTFCIj48ZyBjbGFzcz0ic3RlbmNpbHMiIHRyYW5zZm9ybT0idHJhbnNsYXRlKDM2LCA0OS4wMjcpIj48ZyBjbGFzcz0ibWUiPjxnIHhtbG5zOm5zMD0iaHR0cDovL29yeXgtZWRpdG9yLm9yZyIgbnMwOm1pbmltdW1TaXplPSI4MCA1MCIgcG9pbnRlci1ldmVudHM9ImZpbGwiIHRpdGxlPSJOb2RlIj48ZGVmcz48cmFkaWFsR3JhZGllbnQgY3g9IjEwJSIgY3k9IjEwJSIgZng9IjEwJSIgZnk9IjEwJSIgaWQ9InNpZC03MWY3NjEzNC03N2MzLTQ2M2EtYjQyOS1kZDcyNTQyMjY3ZTRiYWNrZ3JvdW5kIiByPSIxMDAlIj48c3RvcCBvZmZzZXQ9IjAiIHN0b3AtY29sb3I9IiNmZmZmZmYiIHN0b3Atb3BhY2l0eT0iMSIvPjxzdG9wIGlkPSJzaWQtNzFmNzYxMzQtNzdjMy00NjNhLWI0MjktZGQ3MjU0MjI2N2U0ZmlsbF9lbCIgb2Zmc2V0PSIxMDAlIiBzdG9wLWNvbG9yPSIjZmZmZmZmIiBzdG9wLW9wYWNpdHk9IjEiLz48L3JhZGlhbEdyYWRpZW50PjwvZGVmcz48cmVjdCBmaWxsPSJ1cmwoI3NpZC03MWY3NjEzNC03N2MzLTQ2M2EtYjQyOS1kZDcyNTQyMjY3ZTRiYWNrZ3JvdW5kKSAjYzllN2I3IiBoZWlnaHQ9IjE2My41NzkiIGlkPSJzaWQtNzFmNzYxMzQtNzdjMy00NjNhLWI0MjktZGQ3MjU0MjI2N2U0YmdfZnJhbWUiIG5zMDpyZXNpemU9InZlcnRpY2FsIGhvcml6b250YWwiIHN0cm9rZT0iIzAwMDAwMCIgc3Ryb2tlLXdpZHRoPSIxIiB3aWR0aD0iMjYxIiB4PSIwIiB5PSIwIi8+PHRleHQgeG1sbnM6bnMxPSJodHRwOi8vb3J5eC1lZGl0b3Iub3JnIiB4bWxuczpuczI9Imh0dHA6Ly9vcnl4LWVkaXRvci5vcmciIHhtbG5zOm5zMz0iaHR0cDovL29yeXgtZWRpdG9yLm9yZyIgeG1sbnM6bnM0PSJodHRwOi8vb3J5eC1lZGl0b3Iub3JnIiBuczA6YWxpZ249ImNlbnRlciB0b3AiIG5zMTphbmNob3JzPSJ0b3AgbGVmdCIgZGlzcGxheT0iaW5oZXJpdCIgbnMyOmZpdHRvZWxlbT0ic2lkLTcxZjc2MTM0LTc3YzMtNDYzYS1iNDI5LWRkNzI1NDIyNjdlNHRleHRfZnJhbWUiIGZvbnQtc2l6ZT0iMTIiIG5zMzpmb250U2l6ZT0iMTIiIGlkPSJzaWQtNzFmNzYxMzQtNzdjMy00NjNhLWI0MjktZGQ3MjU0MjI2N2U0dGV4dF9uYW1lX2ZseSIgbGV0dGVyLXNwYWNpbmc9Ii0wLjAxcHgiIHN0cm9rZT0iYmxhY2siIHN0cm9rZS13aWR0aD0iMHB0IiB0ZXh0LWFuY2hvcj0ibWlkZGxlIiBuczQ6dGV4dFdpZHRoPSIyNTUiIHRyYW5zZm9ybT0icm90YXRlKDApIiB4PSIxMzEiIHk9IjUiPjx0c3BhbiBkeT0iMTIiIHg9IjEzMSIgeT0iNSI+Jmx0OyZsdDtPUyZndDsmZ3Q7PHY6bmV3bGluZUNoYXIvPjwvdHNwYW4+PHRzcGFuIGR5PSIyNCIgeD0iMTMxIiB5PSI1Ij5Nb2JpbGUgT1M8L3RzcGFuPjwvdGV4dD48ZyBpZD0ic2lkLTcxZjc2MTM0LTc3YzMtNDYzYS1iNDI5LWRkNzI1NDIyNjdlNHJvbGUiIHN0cm9rZS1saW5lam9pbj0icm91bmQiIHN0eWxlPSJmaWxsOm5vbmU7c3Ryb2tlOiMwMDAwMDA7c3Ryb2tlLXdpZHRoOjEuMjtzdHJva2Utb3BhY2l0eToxIj48cGF0aCBuczA6YW5jaG9ycz0idG9wIHJpZ2h0IiBkPSJtMjM4LjA1OSAxMS4yNzIgbDkuNzg3IDAgbDMuNTkxIC0zLjU5MSBsLTkuNzg3IDAgeiIgaWQ9InNpZC03MWY3NjEzNC03N2MzLTQ2M2EtYjQyOS1kZDcyNTQyMjY3ZTRwYXRoX3RvcCIgc3Ryb2tlPSIjMDAwMDAwIi8+PHBhdGggbnMwOmFuY2hvcnM9InRvcCByaWdodCIgZD0ibTI0Ny44NDYgMTEuMjcyIGwwIDkuOTAyIGwzLjU5MSAtMy41OTEgbDAgLTkuOTAyIHoiIGlkPSJzaWQtNzFmNzYxMzQtNzdjMy00NjNhLWI0MjktZGQ3MjU0MjI2N2U0cGF0aF9yaWdodCIgc3Ryb2tlPSIjMDAwMDAwIi8+PHBhdGggbnMwOmFuY2hvcnM9InRvcCByaWdodCIgZD0ibTIzOC4wNTkgMTEuMjcyIGw5Ljc4NyAwIGwwIDkuOTAyIGwtOS43ODcgMCB6IiBpZD0ic2lkLTcxZjc2MTM0LTc3YzMtNDYzYS1iNDI5LWRkNzI1NDIyNjdlNHBhdGhfZnJvbnQiIHN0cm9rZT0iIzAwMDAwMCIvPjwvZz48dGl0bGU+Tm9kZTwvdGl0bGU+PC9nPjwvZz48ZyBjbGFzcz0iY2hpbGRyZW4iPjxnIGlkPSJzdmctc2lkLUUzNjgzRkVBLTdENUYtNDkxRS04N0RELTdEOEU0MDNFOTI3RiI+PGcgY2xhc3M9InN0ZW5jaWxzIiB0cmFuc2Zvcm09InRyYW5zbGF0ZSgxNDIuMDcsIDYwKSI+PGcgY2xhc3M9Im1lIj48ZyB4bWxuczpuczA9Imh0dHA6Ly9vcnl4LWVkaXRvci5vcmciIG5zMDptaW5pbXVtU2l6ZT0iODAgNTAiIHBvaW50ZXItZXZlbnRzPSJmaWxsIiB0aXRsZT0iQXBwbGljYXRpb24gQ29tcG9uZW50Ij48ZGVmcz48cmFkaWFsR3JhZGllbnQgY3g9IjEwJSIgY3k9IjEwJSIgZng9IjEwJSIgZnk9IjEwJSIgaWQ9InNpZC03NDU3OWQ5OC02YmQwLTRkYWUtODZjMC0wMDYxOWMxMjc2MGJiYWNrZ3JvdW5kIiByPSIxMDAlIj48c3RvcCBvZmZzZXQ9IjAiIHN0b3AtY29sb3I9IiNmZmZmZmYiIHN0b3Atb3BhY2l0eT0iMSIvPjxzdG9wIGlkPSJzaWQtNzQ1NzlkOTgtNmJkMC00ZGFlLTg2YzAtMDA2MTljMTI3NjBiZmlsbF9lbCIgb2Zmc2V0PSIxMDAlIiBzdG9wLWNvbG9yPSIjZmZmZmZmIiBzdG9wLW9wYWNpdHk9IjEiLz48L3JhZGlhbEdyYWRpZW50PjwvZGVmcz48cmVjdCBmaWxsPSJ1cmwoI3NpZC03NDU3OWQ5OC02YmQwLTRkYWUtODZjMC0wMDYxOWMxMjc2MGJiYWNrZ3JvdW5kKSAjYjVmZmZmIiBoZWlnaHQ9IjgwIiBpZD0ic2lkLTc0NTc5ZDk4LTZiZDAtNGRhZS04NmMwLTAwNjE5YzEyNzYwYmJnX2ZyYW1lIiBuczA6cmVzaXplPSJ2ZXJ0aWNhbCBob3Jpem9udGFsIiBzdHJva2U9IiMwMDAwMDAiIHN0cm9rZS13aWR0aD0iMSIgd2lkdGg9IjEwMCIgeD0iMCIgeT0iMCIvPjx0ZXh0IHhtbG5zOm5zMT0iaHR0cDovL29yeXgtZWRpdG9yLm9yZyIgeG1sbnM6bnMyPSJodHRwOi8vb3J5eC1lZGl0b3Iub3JnIiB4bWxuczpuczM9Imh0dHA6Ly9vcnl4LWVkaXRvci5vcmciIG5zMDphbGlnbj0iY2VudGVyIG1pZGRsZSIgZGlzcGxheT0iaW5oZXJpdCIgbnMxOmZpdHRvZWxlbT0ic2lkLTc0NTc5ZDk4LTZiZDAtNGRhZS04NmMwLTAwNjE5YzEyNzYwYnRleHRfZnJhbWUiIGZvbnQtc2l6ZT0iMTIiIG5zMjpmb250U2l6ZT0iMTIiIGlkPSJzaWQtNzQ1NzlkOTgtNmJkMC00ZGFlLTg2YzAtMDA2MTljMTI3NjBidGV4dF9uYW1lIiBsZXR0ZXItc3BhY2luZz0iLTAuMDFweCIgc3Ryb2tlPSJibGFjayIgc3Ryb2tlLXdpZHRoPSIwcHQiIHRleHQtYW5jaG9yPSJtaWRkbGUiIG5zMzp0ZXh0V2lkdGg9IjcyIiB0cmFuc2Zvcm09InJvdGF0ZSgwKSIgeD0iNTAiIHk9IjQwIj48dHNwYW4gZHk9Ii0yIiB4PSI1MCIgeT0iNDAiPldlYjx2Om5ld2xpbmVDaGFyLz48L3RzcGFuPjx0c3BhbiBkeT0iMTAiIHg9IjUwIiB5PSI0MCI+YXBwbGljYXRpb248L3RzcGFuPjwvdGV4dD48ZyBpZD0ic2lkLTc0NTc5ZDk4LTZiZDAtNGRhZS04NmMwLTAwNjE5YzEyNzYwYmljb24iIHN0eWxlPSJmaWxsOiNhMmU1ZTU7ZmlsbC1vcGFjaXR5OjE7c3Ryb2tlOiMwMDAwMDA7c3Ryb2tlLXdpZHRoOjEuMjtzdHJva2Utb3BhY2l0eToxIiB0cmFuc2Zvcm09InRyYW5zbGF0ZSgtMTAsMCkiPjxyZWN0IG5zMDphbmNob3JzPSJ0b3AgbGVmdCIgZmlsbD0iI0ZGRkZGRiIgaGVpZ2h0PSIxMiIgaWQ9InNpZC03NDU3OWQ5OC02YmQwLTRkYWUtODZjMC0wMDYxOWMxMjc2MGJpY29uXzEiIHN0cm9rZT0iIzAwMDAwMCIgd2lkdGg9IjIwIiB4PSIxIiB5PSIxMC4xMzkiLz48cmVjdCBuczA6YW5jaG9ycz0idG9wIGxlZnQiIGZpbGw9IiNGRkZGRkYiIGhlaWdodD0iMTIiIGlkPSJzaWQtNzQ1NzlkOTgtNmJkMC00ZGFlLTg2YzAtMDA2MTljMTI3NjBiaWNvbl8yIiBzdHJva2U9IiMwMDAwMDAiIHdpZHRoPSIyMCIgeD0iMSIgeT0iMjkuOTM4Ii8+PC9nPjx0aXRsZT5BcHBsaWNhdGlvbiBDb21wb25lbnQ8L3RpdGxlPjwvZz48L2c+PGcgY2xhc3M9ImNoaWxkcmVuIi8+PGcgY2xhc3M9ImVkZ2UiLz48ZyBjbGFzcz0idG9wY2hpbGRyZW4iLz48ZyBjbGFzcz0ib3ZlcmxheXMgc3RyaXBhYmxlLWVsZW1lbnQtZm9yY2UiLz48L2c+PGcgY2xhc3M9ImNvbnRyb2xzIj48ZyBjbGFzcz0iZG9ja2VycyIvPjxnIGNsYXNzPSJtYWduZXRzIi8+PC9nPjwvZz48ZyBpZD0ic3ZnLXNpZC1FODA3NDZBMS1FQzQwLTQyQzktQUMyOS0xM0E2MTFBNUFDRjYiPjxnIGNsYXNzPSJzdGVuY2lscyIgdHJhbnNmb3JtPSJ0cmFuc2xhdGUoMjQsIDYwKSI+PGcgY2xhc3M9Im1lIj48ZyB4bWxuczpuczA9Imh0dHA6Ly9vcnl4LWVkaXRvci5vcmciIG5zMDptaW5pbXVtU2l6ZT0iODAgNTAiIHBvaW50ZXItZXZlbnRzPSJmaWxsIiB0aXRsZT0iQXBwbGljYXRpb24gQ29tcG9uZW50Ij48ZGVmcz48cmFkaWFsR3JhZGllbnQgY3g9IjEwJSIgY3k9IjEwJSIgZng9IjEwJSIgZnk9IjEwJSIgaWQ9InNpZC0xMDBjM2EzYy0zNDkzLTRlMDctYTI1MS0wYjFhYmNmNWJlZTdiYWNrZ3JvdW5kIiByPSIxMDAlIj48c3RvcCBvZmZzZXQ9IjAiIHN0b3AtY29sb3I9IiNmZmZmZmYiIHN0b3Atb3BhY2l0eT0iMSIvPjxzdG9wIGlkPSJzaWQtMTAwYzNhM2MtMzQ5My00ZTA3LWEyNTEtMGIxYWJjZjViZWU3ZmlsbF9lbCIgb2Zmc2V0PSIxMDAlIiBzdG9wLWNvbG9yPSIjZmZmZmZmIiBzdG9wLW9wYWNpdHk9IjEiLz48L3JhZGlhbEdyYWRpZW50PjwvZGVmcz48cmVjdCBmaWxsPSJ1cmwoI3NpZC0xMDBjM2EzYy0zNDkzLTRlMDctYTI1MS0wYjFhYmNmNWJlZTdiYWNrZ3JvdW5kKSAjYjVmZmZmIiBoZWlnaHQ9IjgwIiBpZD0ic2lkLTEwMGMzYTNjLTM0OTMtNGUwNy1hMjUxLTBiMWFiY2Y1YmVlN2JnX2ZyYW1lIiBuczA6cmVzaXplPSJ2ZXJ0aWNhbCBob3Jpem9udGFsIiBzdHJva2U9IiMwMDAwMDAiIHN0cm9rZS13aWR0aD0iMSIgd2lkdGg9IjEwMCIgeD0iMCIgeT0iMCIvPjx0ZXh0IHhtbG5zOm5zMT0iaHR0cDovL29yeXgtZWRpdG9yLm9yZyIgeG1sbnM6bnMyPSJodHRwOi8vb3J5eC1lZGl0b3Iub3JnIiB4bWxuczpuczM9Imh0dHA6Ly9vcnl4LWVkaXRvci5vcmciIG5zMDphbGlnbj0iY2VudGVyIG1pZGRsZSIgZGlzcGxheT0iaW5oZXJpdCIgbnMxOmZpdHRvZWxlbT0ic2lkLTEwMGMzYTNjLTM0OTMtNGUwNy1hMjUxLTBiMWFiY2Y1YmVlN3RleHRfZnJhbWUiIGZvbnQtc2l6ZT0iMTIiIG5zMjpmb250U2l6ZT0iMTIiIGlkPSJzaWQtMTAwYzNhM2MtMzQ5My00ZTA3LWEyNTEtMGIxYWJjZjViZWU3dGV4dF9uYW1lIiBsZXR0ZXItc3BhY2luZz0iLTAuMDFweCIgc3Ryb2tlPSJibGFjayIgc3Ryb2tlLXdpZHRoPSIwcHQiIHRleHQtYW5jaG9yPSJtaWRkbGUiIG5zMzp0ZXh0V2lkdGg9IjcyIiB0cmFuc2Zvcm09InJvdGF0ZSgwKSIgeD0iNTAiIHk9IjQwIj48dHNwYW4gZHk9Ii0yIiB4PSI1MCIgeT0iNDAiPk1vYmlsZTx2Om5ld2xpbmVDaGFyLz48L3RzcGFuPjx0c3BhbiBkeT0iMTAiIHg9IjUwIiB5PSI0MCI+YXBwbGljYXRpb248L3RzcGFuPjwvdGV4dD48ZyBpZD0ic2lkLTEwMGMzYTNjLTM0OTMtNGUwNy1hMjUxLTBiMWFiY2Y1YmVlN2ljb24iIHN0eWxlPSJmaWxsOiNhMmU1ZTU7ZmlsbC1vcGFjaXR5OjE7c3Ryb2tlOiMwMDAwMDA7c3Ryb2tlLXdpZHRoOjEuMjtzdHJva2Utb3BhY2l0eToxIiB0cmFuc2Zvcm09InRyYW5zbGF0ZSgtMTAsMCkiPjxyZWN0IG5zMDphbmNob3JzPSJ0b3AgbGVmdCIgZmlsbD0iI0ZGRkZGRiIgaGVpZ2h0PSIxMiIgaWQ9InNpZC0xMDBjM2EzYy0zNDkzLTRlMDctYTI1MS0wYjFhYmNmNWJlZTdpY29uXzEiIHN0cm9rZT0iIzAwMDAwMCIgd2lkdGg9IjIwIiB4PSIxIiB5PSIxMC4xMzkiLz48cmVjdCBuczA6YW5jaG9ycz0idG9wIGxlZnQiIGZpbGw9IiNGRkZGRkYiIGhlaWdodD0iMTIiIGlkPSJzaWQtMTAwYzNhM2MtMzQ5My00ZTA3LWEyNTEtMGIxYWJjZjViZWU3aWNvbl8yIiBzdHJva2U9IiMwMDAwMDAiIHdpZHRoPSIyMCIgeD0iMSIgeT0iMjkuOTM4Ii8+PC9nPjx0aXRsZT5BcHBsaWNhdGlvbiBDb21wb25lbnQ8L3RpdGxlPjwvZz48L2c+PGcgY2xhc3M9ImNoaWxkcmVuIi8+PGcgY2xhc3M9ImVkZ2UiLz48ZyBjbGFzcz0idG9wY2hpbGRyZW4iLz48ZyBjbGFzcz0ib3ZlcmxheXMgc3RyaXBhYmxlLWVsZW1lbnQtZm9yY2UiLz48L2c+PGcgY2xhc3M9ImNvbnRyb2xzIj48ZyBjbGFzcz0iZG9ja2VycyIvPjxnIGNsYXNzPSJtYWduZXRzIi8+PC9nPjwvZz48L2c+PGcgY2xhc3M9ImVkZ2UiLz48ZyBjbGFzcz0idG9wY2hpbGRyZW4iLz48ZyBjbGFzcz0ib3ZlcmxheXMgc3RyaXBhYmxlLWVsZW1lbnQtZm9yY2UiLz48L2c+PGcgY2xhc3M9ImNvbnRyb2xzIj48ZyBjbGFzcz0iZG9ja2VycyIvPjxnIGNsYXNzPSJtYWduZXRzIi8+PC9nPjwvZz48L2c+PGcgY2xhc3M9ImVkZ2UiLz48ZyBjbGFzcz0idG9wY2hpbGRyZW4iLz48ZyBjbGFzcz0ib3ZlcmxheXMgc3RyaXBhYmxlLWVsZW1lbnQtZm9yY2UiLz48L2c+PGcgY2xhc3M9ImNvbnRyb2xzIj48ZyBjbGFzcz0iZG9ja2VycyIvPjxnIGNsYXNzPSJtYWduZXRzIi8+PC9nPjwvZz48ZyBpZD0ic3ZnLXNpZC1GODRERjhGNi1GODE1LTQ2NjYtQUQwQS00QjU4MEUzQTcwMjQiPjxnIGNsYXNzPSJzdGVuY2lscyIgdHJhbnNmb3JtPSJ0cmFuc2xhdGUoNzIuNDczLCA0NTUuMTU5KSI+PGcgY2xhc3M9Im1lIj48ZyB4bWxuczpuczA9Imh0dHA6Ly9vcnl4LWVkaXRvci5vcmciIG5zMDptaW5pbXVtU2l6ZT0iODAgNTAiIHBvaW50ZXItZXZlbnRzPSJmaWxsIiB0aXRsZT0iTm9kZSI+PGRlZnM+PHJhZGlhbEdyYWRpZW50IGN4PSIxMCUiIGN5PSIxMCUiIGZ4PSIxMCUiIGZ5PSIxMCUiIGlkPSJzaWQtZDhjOWU3MjQtMDA5NC00ZGQxLWFiMzctZThmNjlkN2IwNWExYmFja2dyb3VuZCIgcj0iMTAwJSI+PHN0b3Agb2Zmc2V0PSIwIiBzdG9wLWNvbG9yPSIjZmZmZmZmIiBzdG9wLW9wYWNpdHk9IjEiLz48c3RvcCBpZD0ic2lkLWQ4YzllNzI0LTAwOTQtNGRkMS1hYjM3LWU4ZjY5ZDdiMDVhMWZpbGxfZWwiIG9mZnNldD0iMTAwJSIgc3RvcC1jb2xvcj0iIzhmYzFhOSIgc3RvcC1vcGFjaXR5PSIxIi8+PC9yYWRpYWxHcmFkaWVudD48L2RlZnM+PHJlY3QgZmlsbD0idXJsKCNzaWQtZDhjOWU3MjQtMDA5NC00ZGQxLWFiMzctZThmNjlkN2IwNWExYmFja2dyb3VuZCkgI2M5ZTdiNyIgaGVpZ2h0PSIyNDguMTg0IiBpZD0ic2lkLWQ4YzllNzI0LTAwOTQtNGRkMS1hYjM3LWU4ZjY5ZDdiMDVhMWJnX2ZyYW1lIiBuczA6cmVzaXplPSJ2ZXJ0aWNhbCBob3Jpem9udGFsIiBzdHJva2U9IiMwMDAwMDAiIHN0cm9rZS13aWR0aD0iMSIgd2lkdGg9IjMzNCIgeD0iMCIgeT0iMCIvPjx0ZXh0IHhtbG5zOm5zMT0iaHR0cDovL29yeXgtZWRpdG9yLm9yZyIgeG1sbnM6bnMyPSJodHRwOi8vb3J5eC1lZGl0b3Iub3JnIiB4bWxuczpuczM9Imh0dHA6Ly9vcnl4LWVkaXRvci5vcmciIHhtbG5zOm5zND0iaHR0cDovL29yeXgtZWRpdG9yLm9yZyIgbnMwOmFsaWduPSJjZW50ZXIgdG9wIiBuczE6YW5jaG9ycz0idG9wIGxlZnQiIGRpc3BsYXk9ImluaGVyaXQiIG5zMjpmaXR0b2VsZW09InNpZC1kOGM5ZTcyNC0wMDk0LTRkZDEtYWIzNy1lOGY2OWQ3YjA1YTF0ZXh0X2ZyYW1lIiBmb250LXNpemU9IjEyIiBuczM6Zm9udFNpemU9IjEyIiBpZD0ic2lkLWQ4YzllNzI0LTAwOTQtNGRkMS1hYjM3LWU4ZjY5ZDdiMDVhMXRleHRfbmFtZV9mbHkiIGxldHRlci1zcGFjaW5nPSItMC4wMXB4IiBzdHJva2U9ImJsYWNrIiBzdHJva2Utd2lkdGg9IjBwdCIgdGV4dC1hbmNob3I9Im1pZGRsZSIgbnM0OnRleHRXaWR0aD0iMzI4IiB0cmFuc2Zvcm09InJvdGF0ZSgwKSIgeD0iMTY3IiB5PSI1Ij48dHNwYW4gZHk9IjEyIiB4PSIxNjciIHk9IjUiPiZsdDsmbHQ7ZGV2aWNlJmd0OyZndDs8djpuZXdsaW5lQ2hhci8+PC90c3Bhbj48dHNwYW4gZHk9IjI0IiB4PSIxNjciIHk9IjUiPlBlcnNvbmFsIENvbXB1dGVyPC90c3Bhbj48L3RleHQ+PGcgaWQ9InNpZC1kOGM5ZTcyNC0wMDk0LTRkZDEtYWIzNy1lOGY2OWQ3YjA1YTFyb2xlIiBzdHJva2UtbGluZWpvaW49InJvdW5kIiBzdHlsZT0iZmlsbDpub25lO3N0cm9rZTojMDAwMDAwO3N0cm9rZS13aWR0aDoxLjI7c3Ryb2tlLW9wYWNpdHk6MSI+PHBhdGggbnMwOmFuY2hvcnM9InRvcCByaWdodCIgZD0ibTMxMS4wNTkgMTEuMjcyIGw5Ljc4NyAwIGwzLjU5MSAtMy41OTEgbC05Ljc4NyAwIHoiIGlkPSJzaWQtZDhjOWU3MjQtMDA5NC00ZGQxLWFiMzctZThmNjlkN2IwNWExcGF0aF90b3AiIHN0cm9rZT0iIzAwMDAwMCIvPjxwYXRoIG5zMDphbmNob3JzPSJ0b3AgcmlnaHQiIGQ9Im0zMjAuODQ2IDExLjI3MiBsMCA5LjkwMiBsMy41OTEgLTMuNTkxIGwwIC05LjkwMiB6IiBpZD0ic2lkLWQ4YzllNzI0LTAwOTQtNGRkMS1hYjM3LWU4ZjY5ZDdiMDVhMXBhdGhfcmlnaHQiIHN0cm9rZT0iIzAwMDAwMCIvPjxwYXRoIG5zMDphbmNob3JzPSJ0b3AgcmlnaHQiIGQ9Im0zMTEuMDU5IDExLjI3MiBsOS43ODcgMCBsMCA5LjkwMiBsLTkuNzg3IDAgeiIgaWQ9InNpZC1kOGM5ZTcyNC0wMDk0LTRkZDEtYWIzNy1lOGY2OWQ3YjA1YTFwYXRoX2Zyb250IiBzdHJva2U9IiMwMDAwMDAiLz48L2c+PHRpdGxlPk5vZGU8L3RpdGxlPjwvZz48L2c+PGcgY2xhc3M9ImNoaWxkcmVuIj48ZyBpZD0ic3ZnLXNpZC0xMUJDQzFBNC00MTI4LTRDQjAtQTlBNy1GODVCODJCOTJERUQiPjxnIGNsYXNzPSJzdGVuY2lscyIgdHJhbnNmb3JtPSJ0cmFuc2xhdGUoMzYsIDQ5LjAyNykiPjxnIGNsYXNzPSJtZSI+PGcgeG1sbnM6bnMwPSJodHRwOi8vb3J5eC1lZGl0b3Iub3JnIiBuczA6bWluaW11bVNpemU9IjgwIDUwIiBwb2ludGVyLWV2ZW50cz0iZmlsbCIgdGl0bGU9Ik5vZGUiPjxkZWZzPjxyYWRpYWxHcmFkaWVudCBjeD0iMTAlIiBjeT0iMTAlIiBmeD0iMTAlIiBmeT0iMTAlIiBpZD0ic2lkLTA0MjU0NDkzLTAxMDktNDQwOC1iZjViLTlmNGU3MGMwNmIwYmJhY2tncm91bmQiIHI9IjEwMCUiPjxzdG9wIG9mZnNldD0iMCIgc3RvcC1jb2xvcj0iI2ZmZmZmZiIgc3RvcC1vcGFjaXR5PSIxIi8+PHN0b3AgaWQ9InNpZC0wNDI1NDQ5My0wMTA5LTQ0MDgtYmY1Yi05ZjRlNzBjMDZiMGJmaWxsX2VsIiBvZmZzZXQ9IjEwMCUiIHN0b3AtY29sb3I9IiNmZmZmZmYiIHN0b3Atb3BhY2l0eT0iMSIvPjwvcmFkaWFsR3JhZGllbnQ+PC9kZWZzPjxyZWN0IGZpbGw9InVybCgjc2lkLTA0MjU0NDkzLTAxMDktNDQwOC1iZjViLTlmNGU3MGMwNmIwYmJhY2tncm91bmQpICNjOWU3YjciIGhlaWdodD0iMTYzLjU3OSIgaWQ9InNpZC0wNDI1NDQ5My0wMTA5LTQ0MDgtYmY1Yi05ZjRlNzBjMDZiMGJiZ19mcmFtZSIgbnMwOnJlc2l6ZT0idmVydGljYWwgaG9yaXpvbnRhbCIgc3Ryb2tlPSIjMDAwMDAwIiBzdHJva2Utd2lkdGg9IjEiIHdpZHRoPSIyNjEiIHg9IjAiIHk9IjAiLz48dGV4dCB4bWxuczpuczE9Imh0dHA6Ly9vcnl4LWVkaXRvci5vcmciIHhtbG5zOm5zMj0iaHR0cDovL29yeXgtZWRpdG9yLm9yZyIgeG1sbnM6bnMzPSJodHRwOi8vb3J5eC1lZGl0b3Iub3JnIiB4bWxuczpuczQ9Imh0dHA6Ly9vcnl4LWVkaXRvci5vcmciIG5zMDphbGlnbj0iY2VudGVyIHRvcCIgbnMxOmFuY2hvcnM9InRvcCBsZWZ0IiBkaXNwbGF5PSJpbmhlcml0IiBuczI6Zml0dG9lbGVtPSJzaWQtMDQyNTQ0OTMtMDEwOS00NDA4LWJmNWItOWY0ZTcwYzA2YjBidGV4dF9mcmFtZSIgZm9udC1zaXplPSIxMiIgbnMzOmZvbnRTaXplPSIxMiIgaWQ9InNpZC0wNDI1NDQ5My0wMTA5LTQ0MDgtYmY1Yi05ZjRlNzBjMDZiMGJ0ZXh0X25hbWVfZmx5IiBsZXR0ZXItc3BhY2luZz0iLTAuMDFweCIgc3Ryb2tlPSJibGFjayIgc3Ryb2tlLXdpZHRoPSIwcHQiIHRleHQtYW5jaG9yPSJtaWRkbGUiIG5zNDp0ZXh0V2lkdGg9IjI1NSIgdHJhbnNmb3JtPSJyb3RhdGUoMCkiIHg9IjEzMSIgeT0iNSI+PHRzcGFuIGR5PSIxMiIgeD0iMTMxIiB5PSI1Ij4mbHQ7Jmx0O09TJmd0OyZndDs8djpuZXdsaW5lQ2hhci8+PC90c3Bhbj48dHNwYW4gZHk9IjI0IiB4PSIxMzEiIHk9IjUiPkRlc2t0b3AgT1M8L3RzcGFuPjwvdGV4dD48ZyBpZD0ic2lkLTA0MjU0NDkzLTAxMDktNDQwOC1iZjViLTlmNGU3MGMwNmIwYnJvbGUiIHN0cm9rZS1saW5lam9pbj0icm91bmQiIHN0eWxlPSJmaWxsOm5vbmU7c3Ryb2tlOiMwMDAwMDA7c3Ryb2tlLXdpZHRoOjEuMjtzdHJva2Utb3BhY2l0eToxIj48cGF0aCBuczA6YW5jaG9ycz0idG9wIHJpZ2h0IiBkPSJtMjM4LjA1OSAxMS4yNzIgbDkuNzg3IDAgbDMuNTkxIC0zLjU5MSBsLTkuNzg3IDAgeiIgaWQ9InNpZC0wNDI1NDQ5My0wMTA5LTQ0MDgtYmY1Yi05ZjRlNzBjMDZiMGJwYXRoX3RvcCIgc3Ryb2tlPSIjMDAwMDAwIi8+PHBhdGggbnMwOmFuY2hvcnM9InRvcCByaWdodCIgZD0ibTI0Ny44NDYgMTEuMjcyIGwwIDkuOTAyIGwzLjU5MSAtMy41OTEgbDAgLTkuOTAyIHoiIGlkPSJzaWQtMDQyNTQ0OTMtMDEwOS00NDA4LWJmNWItOWY0ZTcwYzA2YjBicGF0aF9yaWdodCIgc3Ryb2tlPSIjMDAwMDAwIi8+PHBhdGggbnMwOmFuY2hvcnM9InRvcCByaWdodCIgZD0ibTIzOC4wNTkgMTEuMjcyIGw5Ljc4NyAwIGwwIDkuOTAyIGwtOS43ODcgMCB6IiBpZD0ic2lkLTA0MjU0NDkzLTAxMDktNDQwOC1iZjViLTlmNGU3MGMwNmIwYnBhdGhfZnJvbnQiIHN0cm9rZT0iIzAwMDAwMCIvPjwvZz48dGl0bGU+Tm9kZTwvdGl0bGU+PC9nPjwvZz48ZyBjbGFzcz0iY2hpbGRyZW4iPjxnIGlkPSJzdmctc2lkLUQ5Rjk2ODFGLTIzMTEtNERFOS1CREJDLUNFMEQ2RUFBMjVFQSI+PGcgY2xhc3M9InN0ZW5jaWxzIiB0cmFuc2Zvcm09InRyYW5zbGF0ZSg4MSwgNjApIj48ZyBjbGFzcz0ibWUiPjxnIHhtbG5zOm5zMD0iaHR0cDovL29yeXgtZWRpdG9yLm9yZyIgbnMwOm1pbmltdW1TaXplPSI4MCA1MCIgcG9pbnRlci1ldmVudHM9ImZpbGwiIHRpdGxlPSJBcHBsaWNhdGlvbiBDb21wb25lbnQiPjxkZWZzPjxyYWRpYWxHcmFkaWVudCBjeD0iMTAlIiBjeT0iMTAlIiBmeD0iMTAlIiBmeT0iMTAlIiBpZD0ic2lkLTQ0ZWEzYTg5LWI5Y2YtNDg0YS05MTA5LTRmMWM2Y2JmYjRmNWJhY2tncm91bmQiIHI9IjEwMCUiPjxzdG9wIG9mZnNldD0iMCIgc3RvcC1jb2xvcj0iI2ZmZmZmZiIgc3RvcC1vcGFjaXR5PSIxIi8+PHN0b3AgaWQ9InNpZC00NGVhM2E4OS1iOWNmLTQ4NGEtOTEwOS00ZjFjNmNiZmI0ZjVmaWxsX2VsIiBvZmZzZXQ9IjEwMCUiIHN0b3AtY29sb3I9IiNmZmZmZmYiIHN0b3Atb3BhY2l0eT0iMSIvPjwvcmFkaWFsR3JhZGllbnQ+PC9kZWZzPjxyZWN0IGZpbGw9InVybCgjc2lkLTQ0ZWEzYTg5LWI5Y2YtNDg0YS05MTA5LTRmMWM2Y2JmYjRmNWJhY2tncm91bmQpICNiNWZmZmYiIGhlaWdodD0iODAiIGlkPSJzaWQtNDRlYTNhODktYjljZi00ODRhLTkxMDktNGYxYzZjYmZiNGY1YmdfZnJhbWUiIG5zMDpyZXNpemU9InZlcnRpY2FsIGhvcml6b250YWwiIHN0cm9rZT0iIzAwMDAwMCIgc3Ryb2tlLXdpZHRoPSIxIiB3aWR0aD0iMTAwIiB4PSIwIiB5PSIwIi8+PHRleHQgeG1sbnM6bnMxPSJodHRwOi8vb3J5eC1lZGl0b3Iub3JnIiB4bWxuczpuczI9Imh0dHA6Ly9vcnl4LWVkaXRvci5vcmciIHhtbG5zOm5zMz0iaHR0cDovL29yeXgtZWRpdG9yLm9yZyIgbnMwOmFsaWduPSJjZW50ZXIgbWlkZGxlIiBkaXNwbGF5PSJpbmhlcml0IiBuczE6Zml0dG9lbGVtPSJzaWQtNDRlYTNhODktYjljZi00ODRhLTkxMDktNGYxYzZjYmZiNGY1dGV4dF9mcmFtZSIgZm9udC1zaXplPSIxMiIgbnMyOmZvbnRTaXplPSIxMiIgaWQ9InNpZC00NGVhM2E4OS1iOWNmLTQ4NGEtOTEwOS00ZjFjNmNiZmI0ZjV0ZXh0X25hbWUiIGxldHRlci1zcGFjaW5nPSItMC4wMXB4IiBzdHJva2U9ImJsYWNrIiBzdHJva2Utd2lkdGg9IjBwdCIgdGV4dC1hbmNob3I9Im1pZGRsZSIgbnMzOnRleHRXaWR0aD0iNzIiIHRyYW5zZm9ybT0icm90YXRlKDApIiB4PSI1MCIgeT0iNDAiPjx0c3BhbiBkeT0iLTIiIHg9IjUwIiB5PSI0MCI+V2ViPHY6bmV3bGluZUNoYXIvPjwvdHNwYW4+PHRzcGFuIGR5PSIxMCIgeD0iNTAiIHk9IjQwIj5hcHBsaWNhdGlvbjwvdHNwYW4+PC90ZXh0PjxnIGlkPSJzaWQtNDRlYTNhODktYjljZi00ODRhLTkxMDktNGYxYzZjYmZiNGY1aWNvbiIgc3R5bGU9ImZpbGw6I2EyZTVlNTtmaWxsLW9wYWNpdHk6MTtzdHJva2U6IzAwMDAwMDtzdHJva2Utd2lkdGg6MS4yO3N0cm9rZS1vcGFjaXR5OjEiIHRyYW5zZm9ybT0idHJhbnNsYXRlKC0xMCwwKSI+PHJlY3QgbnMwOmFuY2hvcnM9InRvcCBsZWZ0IiBmaWxsPSIjRkZGRkZGIiBoZWlnaHQ9IjEyIiBpZD0ic2lkLTQ0ZWEzYTg5LWI5Y2YtNDg0YS05MTA5LTRmMWM2Y2JmYjRmNWljb25fMSIgc3Ryb2tlPSIjMDAwMDAwIiB3aWR0aD0iMjAiIHg9IjEiIHk9IjEwLjEzOSIvPjxyZWN0IG5zMDphbmNob3JzPSJ0b3AgbGVmdCIgZmlsbD0iI0ZGRkZGRiIgaGVpZ2h0PSIxMiIgaWQ9InNpZC00NGVhM2E4OS1iOWNmLTQ4NGEtOTEwOS00ZjFjNmNiZmI0ZjVpY29uXzIiIHN0cm9rZT0iIzAwMDAwMCIgd2lkdGg9IjIwIiB4PSIxIiB5PSIyOS45MzgiLz48L2c+PHRpdGxlPkFwcGxpY2F0aW9uIENvbXBvbmVudDwvdGl0bGU+PC9nPjwvZz48ZyBjbGFzcz0iY2hpbGRyZW4iLz48ZyBjbGFzcz0iZWRnZSIvPjxnIGNsYXNzPSJ0b3BjaGlsZHJlbiIvPjxnIGNsYXNzPSJvdmVybGF5cyBzdHJpcGFibGUtZWxlbWVudC1mb3JjZSIvPjwvZz48ZyBjbGFzcz0iY29udHJvbHMiPjxnIGNsYXNzPSJkb2NrZXJzIi8+PGcgY2xhc3M9Im1hZ25ldHMiLz48L2c+PC9nPjwvZz48ZyBjbGFzcz0iZWRnZSIvPjxnIGNsYXNzPSJ0b3BjaGlsZHJlbiIvPjxnIGNsYXNzPSJvdmVybGF5cyBzdHJpcGFibGUtZWxlbWVudC1mb3JjZSIvPjwvZz48ZyBjbGFzcz0iY29udHJvbHMiPjxnIGNsYXNzPSJkb2NrZXJzIi8+PGcgY2xhc3M9Im1hZ25ldHMiLz48L2c+PC9nPjwvZz48ZyBjbGFzcz0iZWRnZSIvPjxnIGNsYXNzPSJ0b3BjaGlsZHJlbiIvPjxnIGNsYXNzPSJvdmVybGF5cyBzdHJpcGFibGUtZWxlbWVudC1mb3JjZSIvPjwvZz48ZyBjbGFzcz0iY29udHJvbHMiPjxnIGNsYXNzPSJkb2NrZXJzIi8+PGcgY2xhc3M9Im1hZ25ldHMiLz48L2c+PC9nPjxnIGlkPSJzdmctc2lkLTY0ODBBMTdFLTJFN0QtNEQ5Ni1BMzMxLTNCRUVGMDA0MTAxNSI+PGcgY2xhc3M9InN0ZW5jaWxzIiB0cmFuc2Zvcm09InRyYW5zbGF0ZSg5OTAuNDY0LCAzMTQuMDQ5KSI+PGcgY2xhc3M9Im1lIj48ZyB4bWxuczpuczA9Imh0dHA6Ly9vcnl4LWVkaXRvci5vcmciIG5zMDptaW5pbXVtU2l6ZT0iODAgNTAiIHBvaW50ZXItZXZlbnRzPSJmaWxsIiB0aXRsZT0iTm9kZSI+PGRlZnM+PHJhZGlhbEdyYWRpZW50IGN4PSIxMCUiIGN5PSIxMCUiIGZ4PSIxMCUiIGZ5PSIxMCUiIGlkPSJzaWQtNzE5NTI1NzgtODE3MC00NWY2LWJiNTMtMWY3NjcyYWQxYzFmYmFja2dyb3VuZCIgcj0iMTAwJSI+PHN0b3Agb2Zmc2V0PSIwIiBzdG9wLWNvbG9yPSIjZmZmZmZmIiBzdG9wLW9wYWNpdHk9IjEiLz48c3RvcCBpZD0ic2lkLTcxOTUyNTc4LTgxNzAtNDVmNi1iYjUzLTFmNzY3MmFkMWMxZmZpbGxfZWwiIG9mZnNldD0iMTAwJSIgc3RvcC1jb2xvcj0iIzhmYzFhOSIgc3RvcC1vcGFjaXR5PSIxIi8+PC9yYWRpYWxHcmFkaWVudD48L2RlZnM+PHJlY3QgZmlsbD0idXJsKCNzaWQtNzE5NTI1NzgtODE3MC00NWY2LWJiNTMtMWY3NjcyYWQxYzFmYmFja2dyb3VuZCkgI2M5ZTdiNyIgaGVpZ2h0PSIyNDguMTg0IiBpZD0ic2lkLTcxOTUyNTc4LTgxNzAtNDVmNi1iYjUzLTFmNzY3MmFkMWMxZmJnX2ZyYW1lIiBuczA6cmVzaXplPSJ2ZXJ0aWNhbCBob3Jpem9udGFsIiBzdHJva2U9IiMwMDAwMDAiIHN0cm9rZS13aWR0aD0iMSIgd2lkdGg9IjMzNCIgeD0iMCIgeT0iMCIvPjx0ZXh0IHhtbG5zOm5zMT0iaHR0cDovL29yeXgtZWRpdG9yLm9yZyIgeG1sbnM6bnMyPSJodHRwOi8vb3J5eC1lZGl0b3Iub3JnIiB4bWxuczpuczM9Imh0dHA6Ly9vcnl4LWVkaXRvci5vcmciIHhtbG5zOm5zND0iaHR0cDovL29yeXgtZWRpdG9yLm9yZyIgbnMwOmFsaWduPSJjZW50ZXIgdG9wIiBuczE6YW5jaG9ycz0idG9wIGxlZnQiIGRpc3BsYXk9ImluaGVyaXQiIG5zMjpmaXR0b2VsZW09InNpZC03MTk1MjU3OC04MTcwLTQ1ZjYtYmI1My0xZjc2NzJhZDFjMWZ0ZXh0X2ZyYW1lIiBmb250LXNpemU9IjEyIiBuczM6Zm9udFNpemU9IjEyIiBpZD0ic2lkLTcxOTUyNTc4LTgxNzAtNDVmNi1iYjUzLTFmNzY3MmFkMWMxZnRleHRfbmFtZV9mbHkiIGxldHRlci1zcGFjaW5nPSItMC4wMXB4IiBzdHJva2U9ImJsYWNrIiBzdHJva2Utd2lkdGg9IjBwdCIgdGV4dC1hbmNob3I9Im1pZGRsZSIgbnM0OnRleHRXaWR0aD0iMzI4IiB0cmFuc2Zvcm09InJvdGF0ZSgwKSIgeD0iMTY3IiB5PSI1Ij48dHNwYW4gZHk9IjEyIiB4PSIxNjciIHk9IjUiPiZsdDsmbHQ7ZGV2aWNlJmd0OyZndDs8djpuZXdsaW5lQ2hhci8+PC90c3Bhbj48dHNwYW4gZHk9IjI0IiB4PSIxNjciIHk9IjUiPlNlcnZlcjwvdHNwYW4+PC90ZXh0PjxnIGlkPSJzaWQtNzE5NTI1NzgtODE3MC00NWY2LWJiNTMtMWY3NjcyYWQxYzFmcm9sZSIgc3Ryb2tlLWxpbmVqb2luPSJyb3VuZCIgc3R5bGU9ImZpbGw6bm9uZTtzdHJva2U6IzAwMDAwMDtzdHJva2Utd2lkdGg6MS4yO3N0cm9rZS1vcGFjaXR5OjEiPjxwYXRoIG5zMDphbmNob3JzPSJ0b3AgcmlnaHQiIGQ9Im0zMTEuMDU5IDExLjI3MiBsOS43ODcgMCBsMy41OTEgLTMuNTkxIGwtOS43ODcgMCB6IiBpZD0ic2lkLTcxOTUyNTc4LTgxNzAtNDVmNi1iYjUzLTFmNzY3MmFkMWMxZnBhdGhfdG9wIiBzdHJva2U9IiMwMDAwMDAiLz48cGF0aCBuczA6YW5jaG9ycz0idG9wIHJpZ2h0IiBkPSJtMzIwLjg0NiAxMS4yNzIgbDAgOS45MDIgbDMuNTkxIC0zLjU5MSBsMCAtOS45MDIgeiIgaWQ9InNpZC03MTk1MjU3OC04MTcwLTQ1ZjYtYmI1My0xZjc2NzJhZDFjMWZwYXRoX3JpZ2h0IiBzdHJva2U9IiMwMDAwMDAiLz48cGF0aCBuczA6YW5jaG9ycz0idG9wIHJpZ2h0IiBkPSJtMzExLjA1OSAxMS4yNzIgbDkuNzg3IDAgbDAgOS45MDIgbC05Ljc4NyAwIHoiIGlkPSJzaWQtNzE5NTI1NzgtODE3MC00NWY2LWJiNTMtMWY3NjcyYWQxYzFmcGF0aF9mcm9udCIgc3Ryb2tlPSIjMDAwMDAwIi8+PC9nPjx0aXRsZT5Ob2RlPC90aXRsZT48L2c+PC9nPjxnIGNsYXNzPSJjaGlsZHJlbiI+PGcgaWQ9InN2Zy1zaWQtRENCOTY0MUQtNThBMS00QzlELTgxMUMtNzkyMTU3MDg0RTA5Ij48ZyBjbGFzcz0ic3RlbmNpbHMiIHRyYW5zZm9ybT0idHJhbnNsYXRlKDM2LCA0OS4wMjcpIj48ZyBjbGFzcz0ibWUiPjxnIHhtbG5zOm5zMD0iaHR0cDovL29yeXgtZWRpdG9yLm9yZyIgbnMwOm1pbmltdW1TaXplPSI4MCA1MCIgcG9pbnRlci1ldmVudHM9ImZpbGwiIHRpdGxlPSJOb2RlIj48ZGVmcz48cmFkaWFsR3JhZGllbnQgY3g9IjEwJSIgY3k9IjEwJSIgZng9IjEwJSIgZnk9IjEwJSIgaWQ9InNpZC02OTBiYWQ3Ny1lYTM3LTQ5ODQtOTI0Ny02OTQ1YzM1N2FiMDRiYWNrZ3JvdW5kIiByPSIxMDAlIj48c3RvcCBvZmZzZXQ9IjAiIHN0b3AtY29sb3I9IiNmZmZmZmYiIHN0b3Atb3BhY2l0eT0iMSIvPjxzdG9wIGlkPSJzaWQtNjkwYmFkNzctZWEzNy00OTg0LTkyNDctNjk0NWMzNTdhYjA0ZmlsbF9lbCIgb2Zmc2V0PSIxMDAlIiBzdG9wLWNvbG9yPSIjZmZmZmZmIiBzdG9wLW9wYWNpdHk9IjEiLz48L3JhZGlhbEdyYWRpZW50PjwvZGVmcz48cmVjdCBmaWxsPSJ1cmwoI3NpZC02OTBiYWQ3Ny1lYTM3LTQ5ODQtOTI0Ny02OTQ1YzM1N2FiMDRiYWNrZ3JvdW5kKSAjYzllN2I3IiBoZWlnaHQ9IjE2My41NzkiIGlkPSJzaWQtNjkwYmFkNzctZWEzNy00OTg0LTkyNDctNjk0NWMzNTdhYjA0YmdfZnJhbWUiIG5zMDpyZXNpemU9InZlcnRpY2FsIGhvcml6b250YWwiIHN0cm9rZT0iIzAwMDAwMCIgc3Ryb2tlLXdpZHRoPSIxIiB3aWR0aD0iMjYxIiB4PSIwIiB5PSIwIi8+PHRleHQgeG1sbnM6bnMxPSJodHRwOi8vb3J5eC1lZGl0b3Iub3JnIiB4bWxuczpuczI9Imh0dHA6Ly9vcnl4LWVkaXRvci5vcmciIHhtbG5zOm5zMz0iaHR0cDovL29yeXgtZWRpdG9yLm9yZyIgeG1sbnM6bnM0PSJodHRwOi8vb3J5eC1lZGl0b3Iub3JnIiBuczA6YWxpZ249ImNlbnRlciB0b3AiIG5zMTphbmNob3JzPSJ0b3AgbGVmdCIgZGlzcGxheT0iaW5oZXJpdCIgbnMyOmZpdHRvZWxlbT0ic2lkLTY5MGJhZDc3LWVhMzctNDk4NC05MjQ3LTY5NDVjMzU3YWIwNHRleHRfZnJhbWUiIGZvbnQtc2l6ZT0iMTIiIG5zMzpmb250U2l6ZT0iMTIiIGlkPSJzaWQtNjkwYmFkNzctZWEzNy00OTg0LTkyNDctNjk0NWMzNTdhYjA0dGV4dF9uYW1lX2ZseSIgbGV0dGVyLXNwYWNpbmc9Ii0wLjAxcHgiIHN0cm9rZT0iYmxhY2siIHN0cm9rZS13aWR0aD0iMHB0IiB0ZXh0LWFuY2hvcj0ibWlkZGxlIiBuczQ6dGV4dFdpZHRoPSIyNTUiIHRyYW5zZm9ybT0icm90YXRlKDApIiB4PSIxMzEiIHk9IjUiPjx0c3BhbiBkeT0iMTIiIHg9IjEzMSIgeT0iNSI+Jmx0OyZsdDthcHBsaWNhdGlvbiBzZXJ2ZXImZ3Q7Jmd0Ozx2Om5ld2xpbmVDaGFyLz48L3RzcGFuPjx0c3BhbiBkeT0iMjQiIHg9IjEzMSIgeT0iNSI+R2xhc3NGaXNoPC90c3Bhbj48L3RleHQ+PGcgaWQ9InNpZC02OTBiYWQ3Ny1lYTM3LTQ5ODQtOTI0Ny02OTQ1YzM1N2FiMDRyb2xlIiBzdHJva2UtbGluZWpvaW49InJvdW5kIiBzdHlsZT0iZmlsbDpub25lO3N0cm9rZTojMDAwMDAwO3N0cm9rZS13aWR0aDoxLjI7c3Ryb2tlLW9wYWNpdHk6MSI+PHBhdGggbnMwOmFuY2hvcnM9InRvcCByaWdodCIgZD0ibTIzOC4wNTkgMTEuMjcyIGw5Ljc4NyAwIGwzLjU5MSAtMy41OTEgbC05Ljc4NyAwIHoiIGlkPSJzaWQtNjkwYmFkNzctZWEzNy00OTg0LTkyNDctNjk0NWMzNTdhYjA0cGF0aF90b3AiIHN0cm9rZT0iIzAwMDAwMCIvPjxwYXRoIG5zMDphbmNob3JzPSJ0b3AgcmlnaHQiIGQ9Im0yNDcuODQ2IDExLjI3MiBsMCA5LjkwMiBsMy41OTEgLTMuNTkxIGwwIC05LjkwMiB6IiBpZD0ic2lkLTY5MGJhZDc3LWVhMzctNDk4NC05MjQ3LTY5NDVjMzU3YWIwNHBhdGhfcmlnaHQiIHN0cm9rZT0iIzAwMDAwMCIvPjxwYXRoIG5zMDphbmNob3JzPSJ0b3AgcmlnaHQiIGQ9Im0yMzguMDU5IDExLjI3MiBsOS43ODcgMCBsMCA5LjkwMiBsLTkuNzg3IDAgeiIgaWQ9InNpZC02OTBiYWQ3Ny1lYTM3LTQ5ODQtOTI0Ny02OTQ1YzM1N2FiMDRwYXRoX2Zyb250IiBzdHJva2U9IiMwMDAwMDAiLz48L2c+PHRpdGxlPk5vZGU8L3RpdGxlPjwvZz48L2c+PGcgY2xhc3M9ImNoaWxkcmVuIj48ZyBpZD0ic3ZnLXNpZC1DMTU1NzlBNy1BM0VCLTQ4MEYtODAwMS0xOTlGNEVGMTI3MkIiPjxnIGNsYXNzPSJzdGVuY2lscyIgdHJhbnNmb3JtPSJ0cmFuc2xhdGUoODEsIDYwKSI+PGcgY2xhc3M9Im1lIj48ZyB4bWxuczpuczA9Imh0dHA6Ly9vcnl4LWVkaXRvci5vcmciIG5zMDptaW5pbXVtU2l6ZT0iODAgNTAiIHBvaW50ZXItZXZlbnRzPSJmaWxsIiB0aXRsZT0iQXBwbGljYXRpb24gQ29tcG9uZW50Ij48ZGVmcz48cmFkaWFsR3JhZGllbnQgY3g9IjEwJSIgY3k9IjEwJSIgZng9IjEwJSIgZnk9IjEwJSIgaWQ9InNpZC0wNjdjNGQ1My1kNDFlLTQ2ZTQtOWRlMy1lYzNkNWMwNzYxNzFiYWNrZ3JvdW5kIiByPSIxMDAlIj48c3RvcCBvZmZzZXQ9IjAiIHN0b3AtY29sb3I9IiNmZmZmZmYiIHN0b3Atb3BhY2l0eT0iMSIvPjxzdG9wIGlkPSJzaWQtMDY3YzRkNTMtZDQxZS00NmU0LTlkZTMtZWMzZDVjMDc2MTcxZmlsbF9lbCIgb2Zmc2V0PSIxMDAlIiBzdG9wLWNvbG9yPSIjZmZmZmZmIiBzdG9wLW9wYWNpdHk9IjEiLz48L3JhZGlhbEdyYWRpZW50PjwvZGVmcz48cmVjdCBmaWxsPSJ1cmwoI3NpZC0wNjdjNGQ1My1kNDFlLTQ2ZTQtOWRlMy1lYzNkNWMwNzYxNzFiYWNrZ3JvdW5kKSAjYjVmZmZmIiBoZWlnaHQ9IjgwIiBpZD0ic2lkLTA2N2M0ZDUzLWQ0MWUtNDZlNC05ZGUzLWVjM2Q1YzA3NjE3MWJnX2ZyYW1lIiBuczA6cmVzaXplPSJ2ZXJ0aWNhbCBob3Jpem9udGFsIiBzdHJva2U9IiMwMDAwMDAiIHN0cm9rZS13aWR0aD0iMSIgd2lkdGg9IjEwMCIgeD0iMCIgeT0iMCIvPjx0ZXh0IHhtbG5zOm5zMT0iaHR0cDovL29yeXgtZWRpdG9yLm9yZyIgeG1sbnM6bnMyPSJodHRwOi8vb3J5eC1lZGl0b3Iub3JnIiB4bWxuczpuczM9Imh0dHA6Ly9vcnl4LWVkaXRvci5vcmciIG5zMDphbGlnbj0iY2VudGVyIG1pZGRsZSIgZGlzcGxheT0iaW5oZXJpdCIgbnMxOmZpdHRvZWxlbT0ic2lkLTA2N2M0ZDUzLWQ0MWUtNDZlNC05ZGUzLWVjM2Q1YzA3NjE3MXRleHRfZnJhbWUiIGZvbnQtc2l6ZT0iMTIiIG5zMjpmb250U2l6ZT0iMTIiIGlkPSJzaWQtMDY3YzRkNTMtZDQxZS00NmU0LTlkZTMtZWMzZDVjMDc2MTcxdGV4dF9uYW1lIiBsZXR0ZXItc3BhY2luZz0iLTAuMDFweCIgc3Ryb2tlPSJibGFjayIgc3Ryb2tlLXdpZHRoPSIwcHQiIHRleHQtYW5jaG9yPSJtaWRkbGUiIG5zMzp0ZXh0V2lkdGg9IjcyIiB0cmFuc2Zvcm09InJvdGF0ZSgwKSIgeD0iNTAiIHk9IjQwIj48dHNwYW4gZHk9IjQiIHg9IjUwIiB5PSI0MCI+U2VydmVyPC90c3Bhbj48L3RleHQ+PGcgaWQ9InNpZC0wNjdjNGQ1My1kNDFlLTQ2ZTQtOWRlMy1lYzNkNWMwNzYxNzFpY29uIiBzdHlsZT0iZmlsbDojYTJlNWU1O2ZpbGwtb3BhY2l0eToxO3N0cm9rZTojMDAwMDAwO3N0cm9rZS13aWR0aDoxLjI7c3Ryb2tlLW9wYWNpdHk6MSIgdHJhbnNmb3JtPSJ0cmFuc2xhdGUoLTEwLDApIj48cmVjdCBuczA6YW5jaG9ycz0idG9wIGxlZnQiIGZpbGw9IiNGRkZGRkYiIGhlaWdodD0iMTIiIGlkPSJzaWQtMDY3YzRkNTMtZDQxZS00NmU0LTlkZTMtZWMzZDVjMDc2MTcxaWNvbl8xIiBzdHJva2U9IiMwMDAwMDAiIHdpZHRoPSIyMCIgeD0iMSIgeT0iMTAuMTM5Ii8+PHJlY3QgbnMwOmFuY2hvcnM9InRvcCBsZWZ0IiBmaWxsPSIjRkZGRkZGIiBoZWlnaHQ9IjEyIiBpZD0ic2lkLTA2N2M0ZDUzLWQ0MWUtNDZlNC05ZGUzLWVjM2Q1YzA3NjE3MWljb25fMiIgc3Ryb2tlPSIjMDAwMDAwIiB3aWR0aD0iMjAiIHg9IjEiIHk9IjI5LjkzOCIvPjwvZz48dGl0bGU+QXBwbGljYXRpb24gQ29tcG9uZW50PC90aXRsZT48L2c+PC9nPjxnIGNsYXNzPSJjaGlsZHJlbiIvPjxnIGNsYXNzPSJlZGdlIi8+PGcgY2xhc3M9InRvcGNoaWxkcmVuIi8+PGcgY2xhc3M9Im92ZXJsYXlzIHN0cmlwYWJsZS1lbGVtZW50LWZvcmNlIi8+PC9nPjxnIGNsYXNzPSJjb250cm9scyI+PGcgY2xhc3M9ImRvY2tlcnMiLz48ZyBjbGFzcz0ibWFnbmV0cyIvPjwvZz48L2c+PC9nPjxnIGNsYXNzPSJlZGdlIi8+PGcgY2xhc3M9InRvcGNoaWxkcmVuIi8+PGcgY2xhc3M9Im92ZXJsYXlzIHN0cmlwYWJsZS1lbGVtZW50LWZvcmNlIi8+PC9nPjxnIGNsYXNzPSJjb250cm9scyI+PGcgY2xhc3M9ImRvY2tlcnMiLz48ZyBjbGFzcz0ibWFnbmV0cyIvPjwvZz48L2c+PC9nPjxnIGNsYXNzPSJlZGdlIi8+PGcgY2xhc3M9InRvcGNoaWxkcmVuIi8+PGcgY2xhc3M9Im92ZXJsYXlzIHN0cmlwYWJsZS1lbGVtZW50LWZvcmNlIi8+PC9nPjxnIGNsYXNzPSJjb250cm9scyI+PGcgY2xhc3M9ImRvY2tlcnMiLz48ZyBjbGFzcz0ibWFnbmV0cyIvPjwvZz48L2c+PGcgaWQ9InN2Zy1zaWQtRkUwQzY5NDQtNDVFRC00QzMzLTkxREYtMzBCQzRFMjRDRjkyIj48ZyBjbGFzcz0ic3RlbmNpbHMiIHRyYW5zZm9ybT0idHJhbnNsYXRlKDE0NDkuNDU5LCAzNTYuMDQ5KSI+PGcgY2xhc3M9Im1lIj48ZyB4bWxuczpuczA9Imh0dHA6Ly9vcnl4LWVkaXRvci5vcmciIG5zMDptaW5pbXVtU2l6ZT0iODAgNTAiIHBvaW50ZXItZXZlbnRzPSJmaWxsIiB0aXRsZT0iTm9kZSI+PGRlZnM+PHJhZGlhbEdyYWRpZW50IGN4PSIxMCUiIGN5PSIxMCUiIGZ4PSIxMCUiIGZ5PSIxMCUiIGlkPSJzaWQtNDVkMmM4MjctOTU4OC00MzZiLTllMjAtM2Q5Zjc2NjMzN2RkYmFja2dyb3VuZCIgcj0iMTAwJSI+PHN0b3Agb2Zmc2V0PSIwIiBzdG9wLWNvbG9yPSIjZmZmZmZmIiBzdG9wLW9wYWNpdHk9IjEiLz48c3RvcCBpZD0ic2lkLTQ1ZDJjODI3LTk1ODgtNDM2Yi05ZTIwLTNkOWY3NjYzMzdkZGZpbGxfZWwiIG9mZnNldD0iMTAwJSIgc3RvcC1jb2xvcj0iIzhmYzFhOSIgc3RvcC1vcGFjaXR5PSIxIi8+PC9yYWRpYWxHcmFkaWVudD48L2RlZnM+PHJlY3QgZmlsbD0idXJsKCNzaWQtNDVkMmM4MjctOTU4OC00MzZiLTllMjAtM2Q5Zjc2NjMzN2RkYmFja2dyb3VuZCkgI2M5ZTdiNyIgaGVpZ2h0PSIxNjMuNTc5IiBpZD0ic2lkLTQ1ZDJjODI3LTk1ODgtNDM2Yi05ZTIwLTNkOWY3NjYzMzdkZGJnX2ZyYW1lIiBuczA6cmVzaXplPSJ2ZXJ0aWNhbCBob3Jpem9udGFsIiBzdHJva2U9IiMwMDAwMDAiIHN0cm9rZS13aWR0aD0iMSIgd2lkdGg9IjI2MSIgeD0iMCIgeT0iMCIvPjx0ZXh0IHhtbG5zOm5zMT0iaHR0cDovL29yeXgtZWRpdG9yLm9yZyIgeG1sbnM6bnMyPSJodHRwOi8vb3J5eC1lZGl0b3Iub3JnIiB4bWxuczpuczM9Imh0dHA6Ly9vcnl4LWVkaXRvci5vcmciIHhtbG5zOm5zND0iaHR0cDovL29yeXgtZWRpdG9yLm9yZyIgbnMwOmFsaWduPSJjZW50ZXIgdG9wIiBuczE6YW5jaG9ycz0idG9wIGxlZnQiIGRpc3BsYXk9ImluaGVyaXQiIG5zMjpmaXR0b2VsZW09InNpZC00NWQyYzgyNy05NTg4LTQzNmItOWUyMC0zZDlmNzY2MzM3ZGR0ZXh0X2ZyYW1lIiBmb250LXNpemU9IjEyIiBuczM6Zm9udFNpemU9IjEyIiBpZD0ic2lkLTQ1ZDJjODI3LTk1ODgtNDM2Yi05ZTIwLTNkOWY3NjYzMzdkZHRleHRfbmFtZV9mbHkiIGxldHRlci1zcGFjaW5nPSItMC4wMXB4IiBzdHJva2U9ImJsYWNrIiBzdHJva2Utd2lkdGg9IjBwdCIgdGV4dC1hbmNob3I9Im1pZGRsZSIgbnM0OnRleHRXaWR0aD0iMjU1IiB0cmFuc2Zvcm09InJvdGF0ZSgwKSIgeD0iMTMwLjUiIHk9IjUiPjx0c3BhbiBkeT0iMTIiIHg9IjEzMC41IiB5PSI1Ij4mbHQ7Jmx0O2RldmljZSZndDsmZ3Q7PHY6bmV3bGluZUNoYXIvPjwvdHNwYW4+PHRzcGFuIGR5PSIyNCIgeD0iMTMwLjUiIHk9IjUiPkRhdGFiYXNlIHNlcnZlcjwvdHNwYW4+PC90ZXh0PjxnIGlkPSJzaWQtNDVkMmM4MjctOTU4OC00MzZiLTllMjAtM2Q5Zjc2NjMzN2Rkcm9sZSIgc3Ryb2tlLWxpbmVqb2luPSJyb3VuZCIgc3R5bGU9ImZpbGw6bm9uZTtzdHJva2U6IzAwMDAwMDtzdHJva2Utd2lkdGg6MS4yO3N0cm9rZS1vcGFjaXR5OjEiPjxwYXRoIG5zMDphbmNob3JzPSJ0b3AgcmlnaHQiIGQ9Im0yMzguMDU5IDExLjI3MiBsOS43ODcgMCBsMy41OTEgLTMuNTkxIGwtOS43ODcgMCB6IiBpZD0ic2lkLTQ1ZDJjODI3LTk1ODgtNDM2Yi05ZTIwLTNkOWY3NjYzMzdkZHBhdGhfdG9wIiBzdHJva2U9IiMwMDAwMDAiLz48cGF0aCBuczA6YW5jaG9ycz0idG9wIHJpZ2h0IiBkPSJtMjQ3Ljg0NiAxMS4yNzIgbDAgOS45MDIgbDMuNTkxIC0zLjU5MSBsMCAtOS45MDIgeiIgaWQ9InNpZC00NWQyYzgyNy05NTg4LTQzNmItOWUyMC0zZDlmNzY2MzM3ZGRwYXRoX3JpZ2h0IiBzdHJva2U9IiMwMDAwMDAiLz48cGF0aCBuczA6YW5jaG9ycz0idG9wIHJpZ2h0IiBkPSJtMjM4LjA1OSAxMS4yNzIgbDkuNzg3IDAgbDAgOS45MDIgbC05Ljc4NyAwIHoiIGlkPSJzaWQtNDVkMmM4MjctOTU4OC00MzZiLTllMjAtM2Q5Zjc2NjMzN2RkcGF0aF9mcm9udCIgc3Ryb2tlPSIjMDAwMDAwIi8+PC9nPjx0aXRsZT5Ob2RlPC90aXRsZT48L2c+PC9nPjxnIGNsYXNzPSJjaGlsZHJlbiI+PGcgaWQ9InN2Zy1zaWQtQjBEM0EzNTAtNTVGMi00OTk4LTkwMzQtMjJEMTQ2NkExODE1Ij48ZyBjbGFzcz0ic3RlbmNpbHMiIHRyYW5zZm9ybT0idHJhbnNsYXRlKDgxLCA2MC44NjgpIj48ZyBjbGFzcz0ibWUiPjxnIHhtbG5zOm5zMD0iaHR0cDovL29yeXgtZWRpdG9yLm9yZyIgbnMwOm1pbmltdW1TaXplPSI4MCA1MCIgcG9pbnRlci1ldmVudHM9ImZpbGwiIHRpdGxlPSJBcHBsaWNhdGlvbiBDb21wb25lbnQiPjxkZWZzPjxyYWRpYWxHcmFkaWVudCBjeD0iMTAlIiBjeT0iMTAlIiBmeD0iMTAlIiBmeT0iMTAlIiBpZD0ic2lkLTE5ZDM5YWQ5LWYwMDktNGM0NC1hYjljLTE0MTdkNTMzNTEwN2JhY2tncm91bmQiIHI9IjEwMCUiPjxzdG9wIG9mZnNldD0iMCIgc3RvcC1jb2xvcj0iI2ZmZmZmZiIgc3RvcC1vcGFjaXR5PSIxIi8+PHN0b3AgaWQ9InNpZC0xOWQzOWFkOS1mMDA5LTRjNDQtYWI5Yy0xNDE3ZDUzMzUxMDdmaWxsX2VsIiBvZmZzZXQ9IjEwMCUiIHN0b3AtY29sb3I9IiNmZmZmZmYiIHN0b3Atb3BhY2l0eT0iMSIvPjwvcmFkaWFsR3JhZGllbnQ+PC9kZWZzPjxyZWN0IGZpbGw9InVybCgjc2lkLTE5ZDM5YWQ5LWYwMDktNGM0NC1hYjljLTE0MTdkNTMzNTEwN2JhY2tncm91bmQpICNiNWZmZmYiIGhlaWdodD0iODAiIGlkPSJzaWQtMTlkMzlhZDktZjAwOS00YzQ0LWFiOWMtMTQxN2Q1MzM1MTA3YmdfZnJhbWUiIG5zMDpyZXNpemU9InZlcnRpY2FsIGhvcml6b250YWwiIHN0cm9rZT0iIzAwMDAwMCIgc3Ryb2tlLXdpZHRoPSIxIiB3aWR0aD0iMTAwIiB4PSIwIiB5PSIwIi8+PHRleHQgeG1sbnM6bnMxPSJodHRwOi8vb3J5eC1lZGl0b3Iub3JnIiB4bWxuczpuczI9Imh0dHA6Ly9vcnl4LWVkaXRvci5vcmciIHhtbG5zOm5zMz0iaHR0cDovL29yeXgtZWRpdG9yLm9yZyIgbnMwOmFsaWduPSJjZW50ZXIgbWlkZGxlIiBkaXNwbGF5PSJpbmhlcml0IiBuczE6Zml0dG9lbGVtPSJzaWQtMTlkMzlhZDktZjAwOS00YzQ0LWFiOWMtMTQxN2Q1MzM1MTA3dGV4dF9mcmFtZSIgZm9udC1zaXplPSIxMiIgbnMyOmZvbnRTaXplPSIxMiIgaWQ9InNpZC0xOWQzOWFkOS1mMDA5LTRjNDQtYWI5Yy0xNDE3ZDUzMzUxMDd0ZXh0X25hbWUiIGxldHRlci1zcGFjaW5nPSItMC4wMXB4IiBzdHJva2U9ImJsYWNrIiBzdHJva2Utd2lkdGg9IjBwdCIgdGV4dC1hbmNob3I9Im1pZGRsZSIgbnMzOnRleHRXaWR0aD0iNzIiIHRyYW5zZm9ybT0icm90YXRlKDApIiB4PSI1MCIgeT0iNDAiPjx0c3BhbiBkeT0iNCIgeD0iNTAiIHk9IjQwIj5EQk1TPC90c3Bhbj48L3RleHQ+PGcgaWQ9InNpZC0xOWQzOWFkOS1mMDA5LTRjNDQtYWI5Yy0xNDE3ZDUzMzUxMDdpY29uIiBzdHlsZT0iZmlsbDojYTJlNWU1O2ZpbGwtb3BhY2l0eToxO3N0cm9rZTojMDAwMDAwO3N0cm9rZS13aWR0aDoxLjI7c3Ryb2tlLW9wYWNpdHk6MSIgdHJhbnNmb3JtPSJ0cmFuc2xhdGUoLTEwLDApIj48cmVjdCBuczA6YW5jaG9ycz0idG9wIGxlZnQiIGZpbGw9IiNGRkZGRkYiIGhlaWdodD0iMTIiIGlkPSJzaWQtMTlkMzlhZDktZjAwOS00YzQ0LWFiOWMtMTQxN2Q1MzM1MTA3aWNvbl8xIiBzdHJva2U9IiMwMDAwMDAiIHdpZHRoPSIyMCIgeD0iMSIgeT0iMTAuMTM5Ii8+PHJlY3QgbnMwOmFuY2hvcnM9InRvcCBsZWZ0IiBmaWxsPSIjRkZGRkZGIiBoZWlnaHQ9IjEyIiBpZD0ic2lkLTE5ZDM5YWQ5LWYwMDktNGM0NC1hYjljLTE0MTdkNTMzNTEwN2ljb25fMiIgc3Ryb2tlPSIjMDAwMDAwIiB3aWR0aD0iMjAiIHg9IjEiIHk9IjI5LjkzOCIvPjwvZz48dGl0bGU+QXBwbGljYXRpb24gQ29tcG9uZW50PC90aXRsZT48L2c+PC9nPjxnIGNsYXNzPSJjaGlsZHJlbiIvPjxnIGNsYXNzPSJlZGdlIi8+PGcgY2xhc3M9InRvcGNoaWxkcmVuIi8+PGcgY2xhc3M9Im92ZXJsYXlzIHN0cmlwYWJsZS1lbGVtZW50LWZvcmNlIi8+PC9nPjxnIGNsYXNzPSJjb250cm9scyI+PGcgY2xhc3M9ImRvY2tlcnMiLz48ZyBjbGFzcz0ibWFnbmV0cyIvPjwvZz48L2c+PC9nPjxnIGNsYXNzPSJlZGdlIi8+PGcgY2xhc3M9InRvcGNoaWxkcmVuIi8+PGcgY2xhc3M9Im92ZXJsYXlzIHN0cmlwYWJsZS1lbGVtZW50LWZvcmNlIi8+PC9nPjxnIGNsYXNzPSJjb250cm9scyI+PGcgY2xhc3M9ImRvY2tlcnMiLz48ZyBjbGFzcz0ibWFnbmV0cyIvPjwvZz48L2c+PGcgaWQ9InN2Zy1zaWQtOEE5OEM3RTItRUZENi00M0M4LTlEOEEtNkZFRjhFRkJDQTA0Ij48ZyBjbGFzcz0ic3RlbmNpbHMiIHRyYW5zZm9ybT0idHJhbnNsYXRlKDUzMS40NjgsIDMxNC4wNDkpIj48ZyBjbGFzcz0ibWUiPjxnIHhtbG5zOm5zMD0iaHR0cDovL29yeXgtZWRpdG9yLm9yZyIgbnMwOm1pbmltdW1TaXplPSI4MCA1MCIgcG9pbnRlci1ldmVudHM9ImZpbGwiIHRpdGxlPSJOb2RlIj48ZGVmcz48cmFkaWFsR3JhZGllbnQgY3g9IjEwJSIgY3k9IjEwJSIgZng9IjEwJSIgZnk9IjEwJSIgaWQ9InNpZC1jMjY1NjQyMS1iZmNmLTQwNDctYWZkMi1lMjQwNzVlNzg4MTNiYWNrZ3JvdW5kIiByPSIxMDAlIj48c3RvcCBvZmZzZXQ9IjAiIHN0b3AtY29sb3I9IiNmZmZmZmYiIHN0b3Atb3BhY2l0eT0iMSIvPjxzdG9wIGlkPSJzaWQtYzI2NTY0MjEtYmZjZi00MDQ3LWFmZDItZTI0MDc1ZTc4ODEzZmlsbF9lbCIgb2Zmc2V0PSIxMDAlIiBzdG9wLWNvbG9yPSIjOGZjMWE5IiBzdG9wLW9wYWNpdHk9IjEiLz48L3JhZGlhbEdyYWRpZW50PjwvZGVmcz48cmVjdCBmaWxsPSJ1cmwoI3NpZC1jMjY1NjQyMS1iZmNmLTQwNDctYWZkMi1lMjQwNzVlNzg4MTNiYWNrZ3JvdW5kKSAjYzllN2I3IiBoZWlnaHQ9IjI0OC4xODQiIGlkPSJzaWQtYzI2NTY0MjEtYmZjZi00MDQ3LWFmZDItZTI0MDc1ZTc4ODEzYmdfZnJhbWUiIG5zMDpyZXNpemU9InZlcnRpY2FsIGhvcml6b250YWwiIHN0cm9rZT0iIzAwMDAwMCIgc3Ryb2tlLXdpZHRoPSIxIiB3aWR0aD0iMzM0IiB4PSIwIiB5PSIwIi8+PHRleHQgeG1sbnM6bnMxPSJodHRwOi8vb3J5eC1lZGl0b3Iub3JnIiB4bWxuczpuczI9Imh0dHA6Ly9vcnl4LWVkaXRvci5vcmciIHhtbG5zOm5zMz0iaHR0cDovL29yeXgtZWRpdG9yLm9yZyIgeG1sbnM6bnM0PSJodHRwOi8vb3J5eC1lZGl0b3Iub3JnIiBuczA6YWxpZ249ImNlbnRlciB0b3AiIG5zMTphbmNob3JzPSJ0b3AgbGVmdCIgZGlzcGxheT0iaW5oZXJpdCIgbnMyOmZpdHRvZWxlbT0ic2lkLWMyNjU2NDIxLWJmY2YtNDA0Ny1hZmQyLWUyNDA3NWU3ODgxM3RleHRfZnJhbWUiIGZvbnQtc2l6ZT0iMTIiIG5zMzpmb250U2l6ZT0iMTIiIGlkPSJzaWQtYzI2NTY0MjEtYmZjZi00MDQ3LWFmZDItZTI0MDc1ZTc4ODEzdGV4dF9uYW1lX2ZseSIgbGV0dGVyLXNwYWNpbmc9Ii0wLjAxcHgiIHN0cm9rZT0iYmxhY2siIHN0cm9rZS13aWR0aD0iMHB0IiB0ZXh0LWFuY2hvcj0ibWlkZGxlIiBuczQ6dGV4dFdpZHRoPSIzMjgiIHRyYW5zZm9ybT0icm90YXRlKDApIiB4PSIxNjciIHk9IjUiPjx0c3BhbiBkeT0iMTIiIHg9IjE2NyIgeT0iNSI+Jmx0OyZsdDtkZXZpY2UmZ3Q7Jmd0Ozx2Om5ld2xpbmVDaGFyLz48L3RzcGFuPjx0c3BhbiBkeT0iMjQiIHg9IjE2NyIgeT0iNSI+V2ViIFNlcnZlcjwvdHNwYW4+PC90ZXh0PjxnIGlkPSJzaWQtYzI2NTY0MjEtYmZjZi00MDQ3LWFmZDItZTI0MDc1ZTc4ODEzcm9sZSIgc3Ryb2tlLWxpbmVqb2luPSJyb3VuZCIgc3R5bGU9ImZpbGw6bm9uZTtzdHJva2U6IzAwMDAwMDtzdHJva2Utd2lkdGg6MS4yO3N0cm9rZS1vcGFjaXR5OjEiPjxwYXRoIG5zMDphbmNob3JzPSJ0b3AgcmlnaHQiIGQ9Im0zMTEuMDU5IDExLjI3MiBsOS43ODcgMCBsMy41OTEgLTMuNTkxIGwtOS43ODcgMCB6IiBpZD0ic2lkLWMyNjU2NDIxLWJmY2YtNDA0Ny1hZmQyLWUyNDA3NWU3ODgxM3BhdGhfdG9wIiBzdHJva2U9IiMwMDAwMDAiLz48cGF0aCBuczA6YW5jaG9ycz0idG9wIHJpZ2h0IiBkPSJtMzIwLjg0NiAxMS4yNzIgbDAgOS45MDIgbDMuNTkxIC0zLjU5MSBsMCAtOS45MDIgeiIgaWQ9InNpZC1jMjY1NjQyMS1iZmNmLTQwNDctYWZkMi1lMjQwNzVlNzg4MTNwYXRoX3JpZ2h0IiBzdHJva2U9IiMwMDAwMDAiLz48cGF0aCBuczA6YW5jaG9ycz0idG9wIHJpZ2h0IiBkPSJtMzExLjA1OSAxMS4yNzIgbDkuNzg3IDAgbDAgOS45MDIgbC05Ljc4NyAwIHoiIGlkPSJzaWQtYzI2NTY0MjEtYmZjZi00MDQ3LWFmZDItZTI0MDc1ZTc4ODEzcGF0aF9mcm9udCIgc3Ryb2tlPSIjMDAwMDAwIi8+PC9nPjx0aXRsZT5Ob2RlPC90aXRsZT48L2c+PC9nPjxnIGNsYXNzPSJjaGlsZHJlbiI+PGcgaWQ9InN2Zy1zaWQtODNERUY4QjYtMDAzOC00NDM1LUJBNzktREY4NUU2Q0Y0NUMxIj48ZyBjbGFzcz0ic3RlbmNpbHMiIHRyYW5zZm9ybT0idHJhbnNsYXRlKDM2LCA0OS4wMjcpIj48ZyBjbGFzcz0ibWUiPjxnIHhtbG5zOm5zMD0iaHR0cDovL29yeXgtZWRpdG9yLm9yZyIgbnMwOm1pbmltdW1TaXplPSI4MCA1MCIgcG9pbnRlci1ldmVudHM9ImZpbGwiIHRpdGxlPSJOb2RlIj48ZGVmcz48cmFkaWFsR3JhZGllbnQgY3g9IjEwJSIgY3k9IjEwJSIgZng9IjEwJSIgZnk9IjEwJSIgaWQ9InNpZC00YmJkZDlmNi1iZGY0LTQ2ZGUtYjNmMC1lNmY5NWJhM2JkZTViYWNrZ3JvdW5kIiByPSIxMDAlIj48c3RvcCBvZmZzZXQ9IjAiIHN0b3AtY29sb3I9IiNmZmZmZmYiIHN0b3Atb3BhY2l0eT0iMSIvPjxzdG9wIGlkPSJzaWQtNGJiZGQ5ZjYtYmRmNC00NmRlLWIzZjAtZTZmOTViYTNiZGU1ZmlsbF9lbCIgb2Zmc2V0PSIxMDAlIiBzdG9wLWNvbG9yPSIjZmZmZmZmIiBzdG9wLW9wYWNpdHk9IjEiLz48L3JhZGlhbEdyYWRpZW50PjwvZGVmcz48cmVjdCBmaWxsPSJ1cmwoI3NpZC00YmJkZDlmNi1iZGY0LTQ2ZGUtYjNmMC1lNmY5NWJhM2JkZTViYWNrZ3JvdW5kKSAjYzllN2I3IiBoZWlnaHQ9IjE2My41NzkiIGlkPSJzaWQtNGJiZGQ5ZjYtYmRmNC00NmRlLWIzZjAtZTZmOTViYTNiZGU1YmdfZnJhbWUiIG5zMDpyZXNpemU9InZlcnRpY2FsIGhvcml6b250YWwiIHN0cm9rZT0iIzAwMDAwMCIgc3Ryb2tlLXdpZHRoPSIxIiB3aWR0aD0iMjYxIiB4PSIwIiB5PSIwIi8+PHRleHQgeG1sbnM6bnMxPSJodHRwOi8vb3J5eC1lZGl0b3Iub3JnIiB4bWxuczpuczI9Imh0dHA6Ly9vcnl4LWVkaXRvci5vcmciIHhtbG5zOm5zMz0iaHR0cDovL29yeXgtZWRpdG9yLm9yZyIgeG1sbnM6bnM0PSJodHRwOi8vb3J5eC1lZGl0b3Iub3JnIiBuczA6YWxpZ249ImNlbnRlciB0b3AiIG5zMTphbmNob3JzPSJ0b3AgbGVmdCIgZGlzcGxheT0iaW5oZXJpdCIgbnMyOmZpdHRvZWxlbT0ic2lkLTRiYmRkOWY2LWJkZjQtNDZkZS1iM2YwLWU2Zjk1YmEzYmRlNXRleHRfZnJhbWUiIGZvbnQtc2l6ZT0iMTIiIG5zMzpmb250U2l6ZT0iMTIiIGlkPSJzaWQtNGJiZGQ5ZjYtYmRmNC00NmRlLWIzZjAtZTZmOTViYTNiZGU1dGV4dF9uYW1lX2ZseSIgbGV0dGVyLXNwYWNpbmc9Ii0wLjAxcHgiIHN0cm9rZT0iYmxhY2siIHN0cm9rZS13aWR0aD0iMHB0IiB0ZXh0LWFuY2hvcj0ibWlkZGxlIiBuczQ6dGV4dFdpZHRoPSIyNTUiIHRyYW5zZm9ybT0icm90YXRlKDApIiB4PSIxMzEiIHk9IjUiPjx0c3BhbiBkeT0iMTIiIHg9IjEzMSIgeT0iNSI+Jmx0OyZsdDt3ZWIgc2VydmVyJmd0OyZndDs8djpuZXdsaW5lQ2hhci8+PC90c3Bhbj48dHNwYW4gZHk9IjI0IiB4PSIxMzEiIHk9IjUiPk5naW54PC90c3Bhbj48L3RleHQ+PGcgaWQ9InNpZC00YmJkZDlmNi1iZGY0LTQ2ZGUtYjNmMC1lNmY5NWJhM2JkZTVyb2xlIiBzdHJva2UtbGluZWpvaW49InJvdW5kIiBzdHlsZT0iZmlsbDpub25lO3N0cm9rZTojMDAwMDAwO3N0cm9rZS13aWR0aDoxLjI7c3Ryb2tlLW9wYWNpdHk6MSI+PHBhdGggbnMwOmFuY2hvcnM9InRvcCByaWdodCIgZD0ibTIzOC4wNTkgMTEuMjcyIGw5Ljc4NyAwIGwzLjU5MSAtMy41OTEgbC05Ljc4NyAwIHoiIGlkPSJzaWQtNGJiZGQ5ZjYtYmRmNC00NmRlLWIzZjAtZTZmOTViYTNiZGU1cGF0aF90b3AiIHN0cm9rZT0iIzAwMDAwMCIvPjxwYXRoIG5zMDphbmNob3JzPSJ0b3AgcmlnaHQiIGQ9Im0yNDcuODQ2IDExLjI3MiBsMCA5LjkwMiBsMy41OTEgLTMuNTkxIGwwIC05LjkwMiB6IiBpZD0ic2lkLTRiYmRkOWY2LWJkZjQtNDZkZS1iM2YwLWU2Zjk1YmEzYmRlNXBhdGhfcmlnaHQiIHN0cm9rZT0iIzAwMDAwMCIvPjxwYXRoIG5zMDphbmNob3JzPSJ0b3AgcmlnaHQiIGQ9Im0yMzguMDU5IDExLjI3MiBsOS43ODcgMCBsMCA5LjkwMiBsLTkuNzg3IDAgeiIgaWQ9InNpZC00YmJkZDlmNi1iZGY0LTQ2ZGUtYjNmMC1lNmY5NWJhM2JkZTVwYXRoX2Zyb250IiBzdHJva2U9IiMwMDAwMDAiLz48L2c+PHRpdGxlPk5vZGU8L3RpdGxlPjwvZz48L2c+PGcgY2xhc3M9ImNoaWxkcmVuIj48ZyBpZD0ic3ZnLXNpZC1EOEZFQkFGNy1CMDJDLTQzRjQtOTE2OS1ERDU0MDVDNzI2Q0MiPjxnIGNsYXNzPSJzdGVuY2lscyIgdHJhbnNmb3JtPSJ0cmFuc2xhdGUoODEsIDYwKSI+PGcgY2xhc3M9Im1lIj48ZyB4bWxuczpuczA9Imh0dHA6Ly9vcnl4LWVkaXRvci5vcmciIG5zMDptaW5pbXVtU2l6ZT0iODAgNTAiIHBvaW50ZXItZXZlbnRzPSJmaWxsIiB0aXRsZT0iQXBwbGljYXRpb24gQ29tcG9uZW50Ij48ZGVmcz48cmFkaWFsR3JhZGllbnQgY3g9IjEwJSIgY3k9IjEwJSIgZng9IjEwJSIgZnk9IjEwJSIgaWQ9InNpZC01Y2MyNjA5Yi1jMGY2LTQ4NTgtYjY4My04MGZmMjc4ZTdiODBiYWNrZ3JvdW5kIiByPSIxMDAlIj48c3RvcCBvZmZzZXQ9IjAiIHN0b3AtY29sb3I9IiNmZmZmZmYiIHN0b3Atb3BhY2l0eT0iMSIvPjxzdG9wIGlkPSJzaWQtNWNjMjYwOWItYzBmNi00ODU4LWI2ODMtODBmZjI3OGU3YjgwZmlsbF9lbCIgb2Zmc2V0PSIxMDAlIiBzdG9wLWNvbG9yPSIjZmZmZmZmIiBzdG9wLW9wYWNpdHk9IjEiLz48L3JhZGlhbEdyYWRpZW50PjwvZGVmcz48cmVjdCBmaWxsPSJ1cmwoI3NpZC01Y2MyNjA5Yi1jMGY2LTQ4NTgtYjY4My04MGZmMjc4ZTdiODBiYWNrZ3JvdW5kKSAjYjVmZmZmIiBoZWlnaHQ9IjgwIiBpZD0ic2lkLTVjYzI2MDliLWMwZjYtNDg1OC1iNjgzLTgwZmYyNzhlN2I4MGJnX2ZyYW1lIiBuczA6cmVzaXplPSJ2ZXJ0aWNhbCBob3Jpem9udGFsIiBzdHJva2U9IiMwMDAwMDAiIHN0cm9rZS13aWR0aD0iMSIgd2lkdGg9IjEwMCIgeD0iMCIgeT0iMCIvPjx0ZXh0IHhtbG5zOm5zMT0iaHR0cDovL29yeXgtZWRpdG9yLm9yZyIgeG1sbnM6bnMyPSJodHRwOi8vb3J5eC1lZGl0b3Iub3JnIiB4bWxuczpuczM9Imh0dHA6Ly9vcnl4LWVkaXRvci5vcmciIG5zMDphbGlnbj0iY2VudGVyIG1pZGRsZSIgZGlzcGxheT0iaW5oZXJpdCIgbnMxOmZpdHRvZWxlbT0ic2lkLTVjYzI2MDliLWMwZjYtNDg1OC1iNjgzLTgwZmYyNzhlN2I4MHRleHRfZnJhbWUiIGZvbnQtc2l6ZT0iMTIiIG5zMjpmb250U2l6ZT0iMTIiIGlkPSJzaWQtNWNjMjYwOWItYzBmNi00ODU4LWI2ODMtODBmZjI3OGU3YjgwdGV4dF9uYW1lIiBsZXR0ZXItc3BhY2luZz0iLTAuMDFweCIgc3Ryb2tlPSJibGFjayIgc3Ryb2tlLXdpZHRoPSIwcHQiIHRleHQtYW5jaG9yPSJtaWRkbGUiIG5zMzp0ZXh0V2lkdGg9IjcyIiB0cmFuc2Zvcm09InJvdGF0ZSgwKSIgeD0iNTAiIHk9IjQwIj48dHNwYW4gZHk9IjQiIHg9IjUwIiB5PSI0MCI+U2VydmVyPC90c3Bhbj48L3RleHQ+PGcgaWQ9InNpZC01Y2MyNjA5Yi1jMGY2LTQ4NTgtYjY4My04MGZmMjc4ZTdiODBpY29uIiBzdHlsZT0iZmlsbDojYTJlNWU1O2ZpbGwtb3BhY2l0eToxO3N0cm9rZTojMDAwMDAwO3N0cm9rZS13aWR0aDoxLjI7c3Ryb2tlLW9wYWNpdHk6MSIgdHJhbnNmb3JtPSJ0cmFuc2xhdGUoLTEwLDApIj48cmVjdCBuczA6YW5jaG9ycz0idG9wIGxlZnQiIGZpbGw9IiNGRkZGRkYiIGhlaWdodD0iMTIiIGlkPSJzaWQtNWNjMjYwOWItYzBmNi00ODU4LWI2ODMtODBmZjI3OGU3YjgwaWNvbl8xIiBzdHJva2U9IiMwMDAwMDAiIHdpZHRoPSIyMCIgeD0iMSIgeT0iMTAuMTM5Ii8+PHJlY3QgbnMwOmFuY2hvcnM9InRvcCBsZWZ0IiBmaWxsPSIjRkZGRkZGIiBoZWlnaHQ9IjEyIiBpZD0ic2lkLTVjYzI2MDliLWMwZjYtNDg1OC1iNjgzLTgwZmYyNzhlN2I4MGljb25fMiIgc3Ryb2tlPSIjMDAwMDAwIiB3aWR0aD0iMjAiIHg9IjEiIHk9IjI5LjkzOCIvPjwvZz48dGl0bGU+QXBwbGljYXRpb24gQ29tcG9uZW50PC90aXRsZT48L2c+PC9nPjxnIGNsYXNzPSJjaGlsZHJlbiIvPjxnIGNsYXNzPSJlZGdlIi8+PGcgY2xhc3M9InRvcGNoaWxkcmVuIi8+PGcgY2xhc3M9Im92ZXJsYXlzIHN0cmlwYWJsZS1lbGVtZW50LWZvcmNlIi8+PC9nPjxnIGNsYXNzPSJjb250cm9scyI+PGcgY2xhc3M9ImRvY2tlcnMiLz48ZyBjbGFzcz0ibWFnbmV0cyIvPjwvZz48L2c+PC9nPjxnIGNsYXNzPSJlZGdlIi8+PGcgY2xhc3M9InRvcGNoaWxkcmVuIi8+PGcgY2xhc3M9Im92ZXJsYXlzIHN0cmlwYWJsZS1lbGVtZW50LWZvcmNlIi8+PC9nPjxnIGNsYXNzPSJjb250cm9scyI+PGcgY2xhc3M9ImRvY2tlcnMiLz48ZyBjbGFzcz0ibWFnbmV0cyIvPjwvZz48L2c+PC9nPjxnIGNsYXNzPSJlZGdlIi8+PGcgY2xhc3M9InRvcGNoaWxkcmVuIi8+PGcgY2xhc3M9Im92ZXJsYXlzIHN0cmlwYWJsZS1lbGVtZW50LWZvcmNlIi8+PC9nPjxnIGNsYXNzPSJjb250cm9scyI+PGcgY2xhc3M9ImRvY2tlcnMiLz48ZyBjbGFzcz0ibWFnbmV0cyIvPjwvZz48L2c+PC9nPjxnIGNsYXNzPSJlZGdlIj48ZyBpZD0ic3ZnLXNpZC1DRTY5QTEzQy0yMzFCLTRDMzMtQjZGNi02QzM2MjgwRDQ0OEUiPjxnIGNsYXNzPSJzdGVuY2lscyI+PGcgY2xhc3M9Im1lIj48ZyBpZD0ic2lkLTNhMjlmNzBhLTNmYmUtNDMxMy1iYzlhLTZlYjg1NzAyZjMxY2VkZ2UiIHBvaW50ZXItZXZlbnRzPSJwYWludGVkIj48cGF0aCBkPSJNODY1Ljk2OCA0MzguMTQyIEw5ODkuOTY0IDQzOC4xNDIgIiBmaWxsPSJub25lIiBpZD0ic2lkLTNhMjlmNzBhLTNmYmUtNDMxMy1iYzlhLTZlYjg1NzAyZjMxY2JnX2ZyYW1lX3NoYWRvdyIgc3Ryb2tlPSJ3aGl0ZSIgc3Ryb2tlLWxpbmVjYXA9ImJ1dHQiIHN0cm9rZS1saW5lam9pbj0icm91bmQiIHN0cm9rZS1vcGFjaXR5PSIwLjciIHN0cm9rZS13aWR0aD0iNSIvPjxwYXRoIGQ9Ik04NjUuOTY4IDQzOC4xNDIgTDk4OS45NjQgNDM4LjE0MiAiIGZpbGw9Im5vbmUiIGlkPSJzaWQtM2EyOWY3MGEtM2ZiZS00MzEzLWJjOWEtNmViODU3MDJmMzFjYmdfZnJhbWUiIHN0cm9rZT0iIzAwMDAwMCIgc3Ryb2tlLWxpbmVjYXA9InJvdW5kIiBzdHJva2UtbGluZWpvaW49InJvdW5kIiBzdHJva2Utd2lkdGg9IjIiLz48L2c+PHRleHQgeG1sbnM6bnMwPSJodHRwOi8vb3J5eC1lZGl0b3Iub3JnIiB4bWxuczpuczE9Imh0dHA6Ly9vcnl4LWVkaXRvci5vcmciIHhtbG5zOm5zMj0iaHR0cDovL29yeXgtZWRpdG9yLm9yZyIgeG1sbnM6bnM0PSJodHRwOi8vb3J5eC1lZGl0b3Iub3JnIiBuczA6YWxpZ249ImNlbnRlciBib3R0b20iIGRpc3BsYXk9ImluaGVyaXQiIG5zMTplZGdlUG9zaXRpb249Im1pZHRvcCIgZm9udC1zaXplPSIxMiIgbnMyOmZvbnRTaXplPSIxMiIgaWQ9InNpZC0zYTI5ZjcwYS0zZmJlLTQzMTMtYmM5YS02ZWI4NTcwMmYzMWN0ZXh0X25hbWUiIGxldHRlci1zcGFjaW5nPSItMC4wMXB4IiBvcnl4OnJvdGF0ZT0iMzYwIiBzdHJva2Utd2lkdGg9IjBwdCIgdGV4dC1hbmNob3I9Im1pZGRsZSIgbnM0OnRleHRXaWR0aD0iLTEiIHRyYW5zZm9ybT0icm90YXRlKDM2MCwgOTI3Ljk2NiwgNDM4LjE0MikiIHg9IjkyNy45NjYiIHk9IjQzMC4xNDIiPjx0c3BhbiBkeT0iMCIgeD0iOTI3Ljk2NiIgeT0iNDMwLjE0MiI+SFRUUFM8L3RzcGFuPjwvdGV4dD48L2c+PGcgY2xhc3M9ImNoaWxkcmVuIiB0cmFuc2Zvcm09InRyYW5zbGF0ZSg4NjUuOTY4LCA0MzguMTQyKSIvPjxnIGNsYXNzPSJlZGdlIi8+PGcgY2xhc3M9InRvcGNoaWxkcmVuIi8+PGcgY2xhc3M9Im92ZXJsYXlzIHN0cmlwYWJsZS1lbGVtZW50LWZvcmNlIi8+PC9nPjxnIGNsYXNzPSJjb250cm9scyI+PGcgY2xhc3M9ImRvY2tlcnMiLz48ZyBjbGFzcz0ibWFnbmV0cyIvPjwvZz48L2c+PGcgaWQ9InN2Zy1zaWQtQkYzNzhFQzEtRkUwOS00QTQyLUEzNTktREQzQjhEQTQzRkE3Ij48ZyBjbGFzcz0ic3RlbmNpbHMiPjxnIGNsYXNzPSJtZSI+PGcgaWQ9InNpZC00OGMzMjA4MS01OTZhLTRiODQtOWQxNC1kMWFjZWU3ZDVhMGRlZGdlIiBwb2ludGVyLWV2ZW50cz0icGFpbnRlZCI+PHBhdGggZD0iTTQwNi45NzMgMzQxLjU2MyBMNTMwLjk2OCAzODIuNjQ2ICIgZmlsbD0ibm9uZSIgaWQ9InNpZC00OGMzMjA4MS01OTZhLTRiODQtOWQxNC1kMWFjZWU3ZDVhMGRiZ19mcmFtZV9zaGFkb3ciIHN0cm9rZT0id2hpdGUiIHN0cm9rZS1saW5lY2FwPSJidXR0IiBzdHJva2UtbGluZWpvaW49InJvdW5kIiBzdHJva2Utb3BhY2l0eT0iMC43IiBzdHJva2Utd2lkdGg9IjUiLz48cGF0aCBkPSJNNDA2Ljk3MyAzNDEuNTYzIEw1MzAuOTY4IDM4Mi42NDYgIiBmaWxsPSJub25lIiBpZD0ic2lkLTQ4YzMyMDgxLTU5NmEtNGI4NC05ZDE0LWQxYWNlZTdkNWEwZGJnX2ZyYW1lIiBzdHJva2U9IiMwMDAwMDAiIHN0cm9rZS1saW5lY2FwPSJyb3VuZCIgc3Ryb2tlLWxpbmVqb2luPSJyb3VuZCIgc3Ryb2tlLXdpZHRoPSIyIi8+PC9nPjx0ZXh0IHhtbG5zOm5zMD0iaHR0cDovL29yeXgtZWRpdG9yLm9yZyIgeG1sbnM6bnMxPSJodHRwOi8vb3J5eC1lZGl0b3Iub3JnIiB4bWxuczpuczI9Imh0dHA6Ly9vcnl4LWVkaXRvci5vcmciIHhtbG5zOm5zND0iaHR0cDovL29yeXgtZWRpdG9yLm9yZyIgbnMwOmFsaWduPSJjZW50ZXIgYm90dG9tIiBkaXNwbGF5PSJpbmhlcml0IiBuczE6ZWRnZVBvc2l0aW9uPSJtaWR0b3AiIGZvbnQtc2l6ZT0iMTIiIG5zMjpmb250U2l6ZT0iMTIiIGlkPSJzaWQtNDhjMzIwODEtNTk2YS00Yjg0LTlkMTQtZDFhY2VlN2Q1YTBkdGV4dF9uYW1lIiBsZXR0ZXItc3BhY2luZz0iLTAuMDFweCIgb3J5eDpyb3RhdGU9IjE4LjMzMSIgc3Ryb2tlLXdpZHRoPSIwcHQiIHRleHQtYW5jaG9yPSJtaWRkbGUiIG5zNDp0ZXh0V2lkdGg9Ii0xIiB0cmFuc2Zvcm09InJvdGF0ZSgxOC4zMzEsIDQ2OC45NzEsIDM2Mi4xMDQpIiB4PSI0NjguOTcxIiB5PSIzNTQuMTA0Ij48dHNwYW4gZHk9IjAiIHg9IjQ2OC45NzEiIHk9IjM1NC4xMDQiPkhUVFBTPC90c3Bhbj48L3RleHQ+PC9nPjxnIGNsYXNzPSJjaGlsZHJlbiIgdHJhbnNmb3JtPSJ0cmFuc2xhdGUoNDA2Ljk3MywgMzQxLjU2MykiLz48ZyBjbGFzcz0iZWRnZSIvPjxnIGNsYXNzPSJ0b3BjaGlsZHJlbiIvPjxnIGNsYXNzPSJvdmVybGF5cyBzdHJpcGFibGUtZWxlbWVudC1mb3JjZSIvPjwvZz48ZyBjbGFzcz0iY29udHJvbHMiPjxnIGNsYXNzPSJkb2NrZXJzIi8+PGcgY2xhc3M9Im1hZ25ldHMiLz48L2c+PC9nPjxnIGlkPSJzdmctc2lkLUIwNDA3QzdELTYwRjMtNDU3RC04NkUyLTdBNTRFQUMyODAzQyI+PGcgY2xhc3M9InN0ZW5jaWxzIj48ZyBjbGFzcz0ibWUiPjxnIGlkPSJzaWQtNzEyYzkzMGQtZDA1NC00MTRiLThkOTUtZjk0ZmU0NDgwNDQ4ZWRnZSIgcG9pbnRlci1ldmVudHM9InBhaW50ZWQiPjxwYXRoIGQ9Ik00MDYuOTczIDUyNy43NTcgTDUzMC45NjggNDg5LjYzNyAiIGZpbGw9Im5vbmUiIGlkPSJzaWQtNzEyYzkzMGQtZDA1NC00MTRiLThkOTUtZjk0ZmU0NDgwNDQ4YmdfZnJhbWVfc2hhZG93IiBzdHJva2U9IndoaXRlIiBzdHJva2UtbGluZWNhcD0iYnV0dCIgc3Ryb2tlLWxpbmVqb2luPSJyb3VuZCIgc3Ryb2tlLW9wYWNpdHk9IjAuNyIgc3Ryb2tlLXdpZHRoPSI1Ii8+PHBhdGggZD0iTTQwNi45NzMgNTI3Ljc1NyBMNTMwLjk2OCA0ODkuNjM3ICIgZmlsbD0ibm9uZSIgaWQ9InNpZC03MTJjOTMwZC1kMDU0LTQxNGItOGQ5NS1mOTRmZTQ0ODA0NDhiZ19mcmFtZSIgc3Ryb2tlPSIjMDAwMDAwIiBzdHJva2UtbGluZWNhcD0icm91bmQiIHN0cm9rZS1saW5lam9pbj0icm91bmQiIHN0cm9rZS13aWR0aD0iMiIvPjwvZz48dGV4dCB4bWxuczpuczA9Imh0dHA6Ly9vcnl4LWVkaXRvci5vcmciIHhtbG5zOm5zMT0iaHR0cDovL29yeXgtZWRpdG9yLm9yZyIgeG1sbnM6bnMyPSJodHRwOi8vb3J5eC1lZGl0b3Iub3JnIiB4bWxuczpuczQ9Imh0dHA6Ly9vcnl4LWVkaXRvci5vcmciIG5zMDphbGlnbj0iY2VudGVyIGJvdHRvbSIgZGlzcGxheT0iaW5oZXJpdCIgbnMxOmVkZ2VQb3NpdGlvbj0ibWlkdG9wIiBmb250LXNpemU9IjEyIiBuczI6Zm9udFNpemU9IjEyIiBpZD0ic2lkLTcxMmM5MzBkLWQwNTQtNDE0Yi04ZDk1LWY5NGZlNDQ4MDQ0OHRleHRfbmFtZSIgbGV0dGVyLXNwYWNpbmc9Ii0wLjAxcHgiIG9yeXg6cm90YXRlPSIzNDIuOTExIiBzdHJva2Utd2lkdGg9IjBwdCIgdGV4dC1hbmNob3I9Im1pZGRsZSIgbnM0OnRleHRXaWR0aD0iLTEiIHRyYW5zZm9ybT0icm90YXRlKDM0Mi45MTEsIDQ2OC45NzEsIDUwOC42OTcpIiB4PSI0NjguOTcxIiB5PSI1MDAuNjk3Ij48dHNwYW4gZHk9IjAiIHg9IjQ2OC45NzEiIHk9IjUwMC42OTciPkhUVFBTPC90c3Bhbj48L3RleHQ+PC9nPjxnIGNsYXNzPSJjaGlsZHJlbiIgdHJhbnNmb3JtPSJ0cmFuc2xhdGUoNDA2Ljk3MywgNDg5LjYzNykiLz48ZyBjbGFzcz0iZWRnZSIvPjxnIGNsYXNzPSJ0b3BjaGlsZHJlbiIvPjxnIGNsYXNzPSJvdmVybGF5cyBzdHJpcGFibGUtZWxlbWVudC1mb3JjZSIvPjwvZz48ZyBjbGFzcz0iY29udHJvbHMiPjxnIGNsYXNzPSJkb2NrZXJzIi8+PGcgY2xhc3M9Im1hZ25ldHMiLz48L2c+PC9nPjxnIGlkPSJzdmctc2lkLTk3QjE2ODMyLUQ1OUItNEQ2MC1BRDY3LTMyOTJGRjIwRDA4QSI+PGcgY2xhc3M9InN0ZW5jaWxzIj48ZyBjbGFzcz0ibWUiPjxnIGlkPSJzaWQtZDkzMjU5NmYtMGI3Ni00ZTEyLTllMGItMzdiZTljODQ0ZmNkZWRnZSIgcG9pbnRlci1ldmVudHM9InBhaW50ZWQiPjxwYXRoIGQ9Ik0xMzI0Ljk2NCA0MzguMDIyIEwxNDQ4Ljk1OSA0MzcuOTMzICIgZmlsbD0ibm9uZSIgaWQ9InNpZC1kOTMyNTk2Zi0wYjc2LTRlMTItOWUwYi0zN2JlOWM4NDRmY2RiZ19mcmFtZV9zaGFkb3ciIHN0cm9rZT0id2hpdGUiIHN0cm9rZS1saW5lY2FwPSJidXR0IiBzdHJva2UtbGluZWpvaW49InJvdW5kIiBzdHJva2Utb3BhY2l0eT0iMC43IiBzdHJva2Utd2lkdGg9IjUiLz48cGF0aCBkPSJNMTMyNC45NjQgNDM4LjAyMiBMMTQ0OC45NTkgNDM3LjkzMyAiIGZpbGw9Im5vbmUiIGlkPSJzaWQtZDkzMjU5NmYtMGI3Ni00ZTEyLTllMGItMzdiZTljODQ0ZmNkYmdfZnJhbWUiIHN0cm9rZT0iIzAwMDAwMCIgc3Ryb2tlLWxpbmVjYXA9InJvdW5kIiBzdHJva2UtbGluZWpvaW49InJvdW5kIiBzdHJva2Utd2lkdGg9IjIiLz48L2c+PHRleHQgeG1sbnM6bnMwPSJodHRwOi8vb3J5eC1lZGl0b3Iub3JnIiB4bWxuczpuczE9Imh0dHA6Ly9vcnl4LWVkaXRvci5vcmciIHhtbG5zOm5zMj0iaHR0cDovL29yeXgtZWRpdG9yLm9yZyIgeG1sbnM6bnM0PSJodHRwOi8vb3J5eC1lZGl0b3Iub3JnIiBuczA6YWxpZ249ImNlbnRlciBib3R0b20iIGRpc3BsYXk9ImluaGVyaXQiIG5zMTplZGdlUG9zaXRpb249Im1pZHRvcCIgZm9udC1zaXplPSIxMiIgbnMyOmZvbnRTaXplPSIxMiIgaWQ9InNpZC1kOTMyNTk2Zi0wYjc2LTRlMTItOWUwYi0zN2JlOWM4NDRmY2R0ZXh0X25hbWUiIGxldHRlci1zcGFjaW5nPSItMC4wMXB4IiBvcnl4OnJvdGF0ZT0iMzU5Ljk1OSIgc3Ryb2tlLXdpZHRoPSIwcHQiIHRleHQtYW5jaG9yPSJtaWRkbGUiIG5zNDp0ZXh0V2lkdGg9Ii0xIiB0cmFuc2Zvcm09InJvdGF0ZSgzNTkuOTU5LCAxMzg2Ljk2MSwgNDM3Ljk3NykiIHg9IjEzODYuOTYxIiB5PSI0MjkuOTc3Ij48dHNwYW4gZHk9Ii0xMiIgeD0iMTM4Ni45NjEiIHk9IjQyOS45NzciPkRCTVM8djpuZXdsaW5lQ2hhci8+PC90c3Bhbj48dHNwYW4gZHk9IjAiIHg9IjEzODYuOTYxIiB5PSI0MjkuOTc3Ij5jb25uZWN0b3I8L3RzcGFuPjwvdGV4dD48L2c+PGcgY2xhc3M9ImNoaWxkcmVuIiB0cmFuc2Zvcm09InRyYW5zbGF0ZSgxMzI0Ljk2NCwgNDM3LjkzMykiLz48ZyBjbGFzcz0iZWRnZSIvPjxnIGNsYXNzPSJ0b3BjaGlsZHJlbiIvPjxnIGNsYXNzPSJvdmVybGF5cyBzdHJpcGFibGUtZWxlbWVudC1mb3JjZSIvPjwvZz48ZyBjbGFzcz0iY29udHJvbHMiPjxnIGNsYXNzPSJkb2NrZXJzIi8+PGcgY2xhc3M9Im1hZ25ldHMiLz48L2c+PC9nPjwvZz48ZyBjbGFzcz0idG9wY2hpbGRyZW4iLz48ZyBjbGFzcz0ib3ZlcmxheXMgc3RyaXBhYmxlLWVsZW1lbnQtZm9yY2UiLz48L2c+PC9nPjwvc3ZnPg==;" vertex="1" parent="1">
          <mxGeometry x="19" y="32" width="520" height="182" as="geometry"/>
        </mxCell>
      </root>
    </mxGraphModel>
  </diagram>
</mxfile>
